<?xml version="1.0" encoding="UTF-8"?>
<svg height="100%" width="100%" xmlns="http://www.w3.org/2000/svg">
	<defs>
		<font horiz-adv-x="367" id="web">
			<font-face alphabetic="0" ascent="968" descent="-253" font-family="" panose-1="2 0 5 7 0 0 0 0 0 4"/>
			<missing-glyph d="M0 718H512V0H0ZM50 667V50H462V667ZM259 609Q313 609 348 573T383 478Q383 444 370 418T320 358Q283 325 277 306T271 234H225L223 251Q223 307 236 332Q251 360 282 391Q313 420 322 437T332 474Q332 510 309 534T256 559Q223 559 201 536T174 464L124 472Q131 541 167 575T259 609ZM222 184H278V117H222Z" horiz-adv-x="512"/>
			<glyph d="" horiz-adv-x="250" unicode=" "/>
			<glyph d="M121 708H183L180 201H123ZM152 83Q170 83 183 70T196 38Q196 20 183 6T152 -7Q134 -7 120 6T107 38Q107 57 120 70T152 83Z" horiz-adv-x="303" unicode="!"/>
			<glyph d="M108 708H159V471H108ZM261 708H312V471H261Z" horiz-adv-x="420" unicode="&quot;"/>
			<glyph d="M202 708H248L218 483H364L393 708H439L409 483H511V440H404L380 269H484V226H375L345 0H299L329 226H183L153 0H108L138 226H34V269H143L167 440H61V483H173ZM212 440L190 269H335L358 440Z" horiz-adv-x="561" unicode="#"/>
			<glyph d="M262 791H301V719Q354 718 404 701T490 659L473 604Q443 629 396 648T301 668L300 380Q367 357 407 336T475 278T503 180Q503 97 444 47T300 -10V-84H261V-10Q203 -8 146 12T56 63L69 121Q106 86 157 65T261 42L262 334Q200 356 160 378T93 437T67 533Q67 612 123 660T262 717ZM262 666Q205 658 166 625T128 537Q128 481 161 450T262 394ZM300 320V44Q361 50 401 85T442 177Q442 217 423 243T375 286T300 320Z" horiz-adv-x="580" unicode="$"/>
			<glyph d="M618 738L657 716L218 -29L181 -8ZM212 718Q258 718 296 695T356 634T379 549Q379 502 356 463T296 403T212 381Q167 381 128 403T67 463T45 549Q45 595 67 634T128 695T212 718ZM212 672Q162 672 127 636T92 549Q92 498 127 462T212 427Q262 427 297 462T333 549Q333 600 297 636T212 672ZM628 326Q674 326 712 303T773 242T796 158Q796 112 773 73T712 12T628 -10Q582 -10 544 12T483 73T461 158Q461 204 483 242T544 303T628 326ZM628 281Q578 281 543 245T508 158Q508 107 543 71T628 36Q677 36 712 71T748 158Q748 192 731 220T687 264T628 281Z" horiz-adv-x="839" unicode="%"/>
			<glyph d="M313 726Q359 726 396 707T456 653T479 574Q479 510 437 468T313 382L493 191L596 374H663L532 154L680 0H602L499 109Q455 47 401 15T278 -16Q219 -16 170 7T92 76T63 184Q63 256 106 305T229 393Q183 443 162 482T141 565Q141 614 164 650T226 706T313 726ZM312 680Q264 680 231 647T198 565Q198 527 219 491T280 415Q350 450 386 485T422 571Q422 619 390 649T312 680ZM263 357Q197 325 160 284T123 184Q123 139 144 105T202 52T282 33Q338 33 383 63T461 148Z" horiz-adv-x="717" unicode="&amp;"/>
			<glyph d="M108 708H159V471H108Z" horiz-adv-x="267" unicode="'"/>
			<glyph d="M192 735L236 711Q177 629 142 514T108 288Q108 177 142 62T236 -135L192 -159Q128 -68 91 49T55 288Q55 409 91 526T192 735Z" horiz-adv-x="307" unicode="("/>
			<glyph d="M114 735Q178 644 214 526T251 288Q251 167 214 49T114 -159L70 -135Q130 -53 164 62T199 288Q199 399 164 514T70 711Z" horiz-adv-x="307" unicode=")"/>
			<glyph d="M204 708H248V552L399 599L414 558L261 511L357 380L321 354L226 487L131 355L95 381L191 511L38 558L53 600L204 552Z" horiz-adv-x="452" unicode="*"/>
			<glyph d="M309 553H359V328H580V280H359V55H309V280H87V328H309Z" horiz-adv-x="666" unicode="+"/>
			<glyph d="M128 108Q147 108 160 93T173 52Q173 -33 82 -118L59 -103Q83 -79 102 -47T126 18Q109 19 96 31T84 63Q84 82 96 95T128 108Z" horiz-adv-x="255" unicode=","/>
			<glyph d="M53 277H257V228H53Z" horiz-adv-x="309" unicode="-"/>
			<glyph d="M128 84Q146 84 159 71T173 39Q173 20 159 6T128 -7Q109 -7 96 6T84 39Q84 57 97 70T128 84Z" horiz-adv-x="255" unicode="."/>
			<glyph d="M319 734L365 718L58 -22L13 -7Z" horiz-adv-x="378" unicode="/"/>
			<glyph d="M290 723Q416 723 469 616T523 354Q523 199 469 92T290 -15Q164 -15 110 92T57 354Q57 509 110 616T290 723ZM290 671Q190 671 154 573T118 354Q118 233 154 135T290 37Q389 37 425 135T462 354Q462 474 425 572T290 671Z" horiz-adv-x="580" unicode="0"/>
			<glyph d="M292 708H348V0H288V638L136 510L110 560Z" horiz-adv-x="580" unicode="1"/>
			<glyph d="M274 723Q332 723 377 699T449 634T475 538Q475 475 442 421T340 290L131 54H512L500 0H58V53L307 333Q359 391 386 439T413 535Q413 596 372 634T270 672Q219 672 175 647T101 583L73 630Q107 673 158 698T274 723Z" horiz-adv-x="580" unicode="2"/>
			<glyph d="M275 723Q329 723 374 701T445 639T472 543Q472 480 436 434T338 374V372Q412 358 453 308T495 192Q495 132 468 85T391 11T275 -15Q203 -15 148 7T58 66L72 127Q106 88 159 62T272 37Q345 37 389 80T434 194Q434 246 406 280T335 330T246 346H221V395H247Q315 395 363 431T412 538Q412 598 372 635T273 673Q224 673 178 649T102 588L75 634Q111 676 161 699T275 723Z" horiz-adv-x="580" unicode="3"/>
			<glyph d="M349 708H426V224H549L538 173H427V0H370V173H40V230ZM367 643L99 224H370V643Z" horiz-adv-x="580" unicode="4"/>
			<glyph d="M126 708H471L459 655H180L170 423Q213 442 274 442Q341 442 392 414T472 335T501 219Q501 147 469 94T384 13T270 -15Q199 -15 145 7T56 64L68 123Q102 85 155 61T267 37Q312 37 352 58T416 120T441 216Q441 297 389 345T254 394Q220 394 182 384T113 359Z" horiz-adv-x="580" unicode="5"/>
			<glyph d="M364 715Q432 715 477 695L466 644Q443 654 419 659T363 665Q255 665 192 577T124 330H126Q156 376 202 402T306 428Q364 428 412 399T489 321T517 208Q517 142 490 91T414 13T300 -15Q232 -15 178 19T94 122T63 289Q63 422 98 517T200 664T364 715ZM298 381Q250 381 210 359T148 301T126 225Q126 179 147 135T208 63T299 36Q371 36 414 84T457 208Q457 256 436 296T379 358T298 381Z" horiz-adv-x="580" unicode="6"/>
			<glyph d="M76 708H489V652L201 0H133L429 655H65Z" horiz-adv-x="580" unicode="7"/>
			<glyph d="M290 723Q345 723 390 700T461 636T488 541Q488 487 457 442T372 379V377Q440 356 477 305T514 190Q514 128 484 81T403 10T290 -15Q228 -15 177 10T96 81T67 189Q67 255 104 306T208 377V379Q153 399 123 443T93 541Q93 595 119 636T190 700T290 723ZM290 674Q230 674 190 636T151 538Q151 501 169 469T218 419T290 401Q329 401 361 419T411 469T430 538Q430 597 389 635T290 674ZM290 352Q244 352 207 331T148 274T127 193Q127 148 147 112T205 55T290 35Q338 35 375 55T432 112T453 193Q453 238 431 274T373 331T290 352Z" horiz-adv-x="580" unicode="8"/>
			<glyph d="M285 715Q354 715 406 678T488 571T517 399Q517 189 443 87T240 -15Q199 -15 163 -7T102 13L112 65Q172 36 242 36Q336 36 395 119T456 369H453Q429 329 379 300T271 272Q210 272 162 300T89 378T63 492Q63 557 92 607T171 686T285 715ZM285 664Q239 664 202 642T144 580T123 492Q123 443 143 403T198 341T281 319Q328 319 368 341T433 396T457 455Q457 510 435 558T374 635T285 664Z" horiz-adv-x="580" unicode="9"/>
			<glyph d="M147 471Q165 471 178 458T191 427Q191 408 178 395T147 382Q129 382 116 394T104 426Q104 445 116 458T147 471ZM147 84Q165 84 178 71T191 39Q191 20 178 7T147 -6Q129 -6 116 7T104 39Q104 57 116 70T147 84Z" horiz-adv-x="294" unicode=":"/>
			<glyph d="M147 471Q165 471 178 458T191 427Q191 408 178 395T147 382Q129 382 116 394T104 426Q104 445 116 458T147 471ZM145 108Q164 108 176 93T189 52Q189 -34 99 -118L76 -103Q100 -80 120 -48T145 18Q126 18 113 31T101 63Q101 82 113 95T145 108Z" horiz-adv-x="294" unicode=";"/>
			<glyph d="M575 551V500L154 303L575 106V55L91 282V324Z" horiz-adv-x="666" unicode="&lt;"/>
			<glyph d="M89 412H577V364H89ZM89 243H577V196H89Z" horiz-adv-x="666" unicode="="/>
			<glyph d="M91 551L575 324V282L91 55V106L512 303L91 500Z" horiz-adv-x="666" unicode="&gt;"/>
			<glyph d="M241 725Q294 725 338 705T408 646T434 553Q434 514 421 484T390 432T337 377Q305 346 289 324T268 280T263 224V203H206V235Q206 280 223 317T283 397Q318 432 334 451T362 495T373 552Q373 607 334 639T236 672Q183 672 139 649T68 593L39 640Q73 677 123 701T241 725ZM238 83Q256 83 268 70T281 38Q281 20 268 6T238 -7Q220 -7 207 6T194 38Q194 57 206 70T238 83Z" horiz-adv-x="487" unicode="?"/>
			<glyph d="M416 727Q513 727 592 688T718 577T765 410Q765 340 742 283T675 193T573 160Q532 160 508 182T484 241H481Q464 209 430 184T351 160Q291 160 257 201T224 304Q224 363 249 420T319 515T422 552Q464 552 491 531T525 475H528L543 535H589L535 324Q525 284 525 255Q525 204 582 204Q646 204 682 262T718 408Q718 490 679 552T571 649T415 684Q322 684 248 639T133 518T92 353Q92 259 134 184T251 66T423 24Q503 24 572 55T692 141L721 110Q665 48 587 14T419 -19Q308 -19 222 30T88 164T41 354Q41 457 91 542T227 677T416 727ZM423 508Q379 508 345 476T294 397T276 303Q276 261 297 232T361 204Q407 204 439 239T488 324T505 411Q505 453 485 480T423 508Z" horiz-adv-x="800" unicode="@"/>
			<glyph d="M315 708H378L675 0H608L500 262H185L77 0H11ZM345 647L205 313H481Z" horiz-adv-x="686" unicode="A"/>
			<glyph d="M97 708H262Q358 708 423 668T488 535Q488 471 450 430T353 375V373Q395 368 433 346T495 286T520 194Q520 94 449 47T276 0H97ZM157 657V395H259Q329 395 378 428T428 528Q428 596 378 626T249 657ZM157 346V51H265Q352 51 405 86T459 196Q459 271 405 308T275 346Z" horiz-adv-x="582" unicode="B"/>
			<glyph d="M430 727Q501 727 568 703T676 643L658 583Q621 621 559 646T431 672Q342 672 272 629T165 514T127 354Q127 266 165 193T272 78T432 36Q501 36 561 62T665 131L679 76Q642 37 573 9T429 -19Q323 -19 239 29T109 162T62 354Q62 461 109 546T241 679T430 727Z" horiz-adv-x="718" unicode="C"/>
			<glyph d="M97 708H317Q424 708 512 670T652 552T705 354Q705 237 652 157T512 39T318 0H97ZM157 654V54H307Q406 54 481 88T599 189T642 354Q642 451 599 518T481 620T308 654Z" horiz-adv-x="767" unicode="D"/>
			<glyph d="M97 708H476L464 655H156V392H452L440 341H156V54H491L479 0H97Z" horiz-adv-x="545" unicode="E"/>
			<glyph d="M97 708H460L457 654H158V389H444L432 337H158V0H97Z" horiz-adv-x="509" unicode="F"/>
			<glyph d="M434 727Q505 727 572 706T684 652L664 599Q621 632 560 652T435 673Q344 673 273 630T164 515T126 355Q126 267 164 194T273 78T440 35Q551 35 639 78V316H469L480 367H697V44Q647 15 580 -2T437 -19Q328 -19 242 29T109 163T62 355Q62 462 110 547T242 679T434 727Z" horiz-adv-x="786" unicode="G"/>
			<glyph d="M97 708H158V394H598V708H658V0H598V341H158V0H97Z" horiz-adv-x="755" unicode="H"/>
			<glyph d="M97 708H158V0H97Z" horiz-adv-x="255" unicode="I"/>
			<glyph d="M228 708H288V202Q288 105 240 43T95 -18Q67 -18 37 -13L26 45Q55 36 87 36Q160 36 194 82T228 207Z" horiz-adv-x="381" unicode="J"/>
			<glyph d="M97 708H158V369L492 708H574L226 365L592 0H508L158 354V0H97Z" horiz-adv-x="606" unicode="K"/>
			<glyph d="M97 708H158V54H476L464 0H97Z" horiz-adv-x="506" unicode="L"/>
			<glyph d="M97 708H190L455 94L719 708H813V0H752L753 640L473 0H433L156 640V0H97Z" horiz-adv-x="910" unicode="M"/>
			<glyph d="M97 708H172L617 86H619V708H679V0H604L159 624H157V0H97Z" horiz-adv-x="776" unicode="N"/>
			<glyph d="M432 727Q537 727 621 679T752 547T800 355Q800 247 752 162T620 29T432 -19Q327 -19 242 29T110 162T62 355Q62 462 110 547T242 679T432 727ZM432 673Q343 673 273 630T164 515T126 355Q126 267 164 194T272 78T432 36Q521 36 590 78T698 194T736 355Q736 443 697 515T590 630T432 673Z" horiz-adv-x="863" unicode="O"/>
			<glyph d="M97 708H300Q400 708 467 659T534 513Q534 449 503 401T421 327T306 301H158V0H97ZM158 658V351H303Q349 351 388 370T450 427T473 513Q473 585 423 621T301 658Z" horiz-adv-x="582" unicode="P"/>
			<glyph d="M427 727Q531 727 614 679T745 549T793 363Q793 295 767 231T696 120T594 53V51L834 52L823 0H426Q322 0 239 46T109 175T62 362Q62 465 108 548T238 679T427 727ZM428 673Q342 673 273 632T165 519T126 361Q126 275 165 204T273 92T429 51Q514 51 583 92T691 205T731 361Q731 448 692 519T585 631T428 673Z" horiz-adv-x="863" unicode="Q"/>
			<glyph d="M97 708H292Q395 708 461 665T528 521Q528 441 479 389T363 322L563 0H492L304 312H158V0H97ZM157 658V361H289Q369 361 418 404T468 521Q468 594 416 626T281 658Z" horiz-adv-x="608" unicode="R"/>
			<glyph d="M303 727Q356 727 407 710T495 668L477 613Q446 638 398 656T303 675Q261 675 222 659T159 612T135 535Q135 491 157 462T212 417T301 382Q369 359 410 338T480 280T509 182Q509 118 477 72T394 4T282 -19Q222 -19 162 2T65 55L78 113Q117 77 171 55T280 34Q349 34 398 72T447 177Q447 221 424 249T368 294T274 332Q211 354 170 375T102 435T75 533Q75 595 107 639T191 705T303 727Z" horiz-adv-x="572" unicode="S"/>
			<glyph d="M16 708H517L506 654H291V0H231V654H4Z" horiz-adv-x="522" unicode="T"/>
			<glyph d="M89 708H150V274Q150 175 197 105T364 35Q482 35 530 105T578 274V708H638V267Q638 142 571 61T364 -19Q223 -19 156 61T89 267Z" horiz-adv-x="727" unicode="U"/>
			<glyph d="M8 708H75L310 71H312L549 708H615L345 0H276Z" horiz-adv-x="623" unicode="V"/>
			<glyph d="M20 708H84L265 78H268L449 708H521L706 78H708L889 708H952L743 0H673L486 631H484L299 0H229Z" horiz-adv-x="972" unicode="W"/>
			<glyph d="M45 708H118L313 415L506 708H577L349 372L603 0H528L311 327L95 0H22L274 372Z" horiz-adv-x="625" unicode="X"/>
			<glyph d="M5 708H79L290 360L501 708H572L319 307V0H258V307Z" horiz-adv-x="577" unicode="Y"/>
			<glyph d="M67 708H537V652L115 54H569L557 0H46V56L468 655H67Z" horiz-adv-x="595" unicode="Z"/>
			<glyph d="M70 732H229V689H121V-113H229V-156H70Z" horiz-adv-x="307" unicode="["/>
			<glyph d="M60 734L366 -7L321 -22L14 718Z" horiz-adv-x="378" unicode="\"/>
			<glyph d="M79 732H238V-156H79V-113H186V689H79Z" horiz-adv-x="307" unicode="]"/>
			<glyph d="M312 708H359L581 268H528L335 656L142 268H89Z" horiz-adv-x="670" unicode="^"/>
			<glyph d="M0 -86H500V-125H0Z" horiz-adv-x="500" unicode="_"/>
			<glyph d="M2 709H70L172 565H124Z" horiz-adv-x="250" unicode="`"/>
			<glyph d="M258 483Q343 483 390 438T438 304V102Q438 37 446 0H392Q389 16 387 43T385 91H382Q361 40 312 13T207 -13Q146 -13 102 22T58 126Q58 281 326 281H383V308Q383 371 347 403T250 436Q212 436 170 419T101 378L84 424Q117 452 163 467T258 483ZM334 242Q114 242 114 128Q114 78 144 54T219 31Q272 31 309 55T364 118T383 195V242Z" horiz-adv-x="524" unicode="a"/>
			<glyph d="M152 767V367H154Q182 422 233 452T344 482Q413 482 466 449T548 360T578 234Q578 165 548 108T465 19T344 -13Q283 -13 230 17T152 102H149Q147 45 142 0H88Q93 53 93 116V756ZM335 433Q283 433 240 406T174 333T150 234Q150 180 174 135T240 63T335 36Q391 36 433 63T497 135T520 234Q520 288 497 333T433 406T335 433Z" horiz-adv-x="634" unicode="b"/>
			<glyph d="M302 483Q347 483 391 467T461 427L437 382Q413 406 376 419T303 433Q248 433 205 406T140 333T117 234Q117 180 140 135T206 63T305 37Q350 37 385 51T452 92L461 43Q433 18 390 2T300 -14Q230 -14 174 17T87 105T56 234Q56 305 88 362T176 451T302 483Z" horiz-adv-x="489" unicode="c"/>
			<glyph d="M541 768V119Q541 67 546 0H490Q485 57 485 102H483Q454 47 402 17T291 -13Q222 -13 168 19T85 108T56 234Q56 303 85 360T168 449T291 482Q351 482 402 452T481 367H483V756ZM299 433Q243 433 201 406T137 333T115 234Q115 180 137 134T201 62T299 36Q352 36 394 63T461 135T485 234Q485 288 461 333T394 406T299 433Z" horiz-adv-x="634" unicode="d"/>
			<glyph d="M288 483Q358 483 408 452T485 368T511 251Q511 234 510 226H113Q114 173 138 129T204 60T301 34Q352 34 397 51T473 95L483 45Q405 -14 296 -14Q227 -14 172 18T87 107T56 237Q56 308 86 364T170 451T288 483ZM288 437Q235 437 196 410T136 345T114 269H455Q453 345 408 391T288 437Z" horiz-adv-x="567" unicode="e"/>
			<glyph d="M261 769Q284 769 307 766T346 758L339 710Q301 720 265 720Q216 720 195 687T174 603V468H296L283 422H174V0H116V422H18L30 468H115V604Q115 686 154 727T261 769Z" horiz-adv-x="304" unicode="f"/>
			<glyph d="M291 482Q351 482 402 451T482 365H484Q484 411 489 468H544Q541 419 541 365V7Q541 -108 480 -177T292 -246Q234 -246 180 -230T86 -189L97 -135Q138 -162 188 -179T289 -196Q390 -196 436 -142T483 6V105H481Q455 52 403 21T291 -9Q222 -9 168 23T85 110T56 235Q56 303 85 359T169 449T291 482ZM299 433Q244 433 202 406T137 334T115 235Q115 182 137 137T202 66T299 39Q352 39 394 65T461 137T485 236Q485 289 461 334T394 406T299 433Z" horiz-adv-x="633" unicode="g"/>
			<glyph d="M152 763V369H154Q173 421 219 451T322 482Q411 482 452 426T493 286V0H435V271Q435 340 406 386T307 433Q264 433 228 409T172 339T152 228V0H93V754Z" horiz-adv-x="581" unicode="h"/>
			<glyph d="M122 698Q139 698 151 686T164 656Q164 638 151 625T122 613Q105 613 92 625T80 656Q80 673 92 685T122 698ZM93 468H152V0H93Z" horiz-adv-x="244" unicode="i"/>
			<glyph d="M123 698Q140 698 152 686T165 656Q165 638 152 625T123 613Q106 613 93 625T81 656Q81 673 93 685T123 698ZM94 468H152V-78Q152 -155 123 -196T23 -241L8 -191Q57 -191 75 -166T94 -76Z" horiz-adv-x="245" unicode="j"/>
			<glyph d="M152 763V256H154L372 468H449L218 253L471 0H395L154 244H152V0H93V753Z" horiz-adv-x="488" unicode="k"/>
			<glyph d="M152 762V117Q152 83 161 66T196 38L169 -11Q135 1 114 29T93 104V751Z" horiz-adv-x="246" unicode="l"/>
			<glyph d="M314 482Q373 482 411 450T467 362Q489 419 533 450T637 482Q725 482 765 425T806 281V0H748V267Q748 338 719 385T625 433Q559 433 518 380T477 242V0H418V277Q418 352 388 392T300 433Q259 433 225 409T172 340T153 233V0H94V359Q94 431 90 468H145Q150 428 150 367H152Q172 420 216 451T314 482Z" horiz-adv-x="893" unicode="m"/>
			<glyph d="M321 482Q410 482 452 426T495 286V0H436V271Q436 340 407 386T309 433Q266 433 230 410T173 343T153 239V0H94V359Q94 432 90 468H145Q150 428 150 367H152Q172 419 218 450T321 482Z" horiz-adv-x="582" unicode="n"/>
			<glyph d="M305 483Q376 483 433 451T522 363T555 235Q555 164 522 107T433 18T305 -14Q234 -14 177 18T88 107T56 235Q56 307 88 363T177 451T305 483ZM305 433Q248 433 204 406T138 335T115 235Q115 181 138 135T204 63T305 36Q363 36 406 63T473 135T496 235Q496 290 472 335T405 406T305 433Z" horiz-adv-x="611" unicode="o"/>
			<glyph d="M343 482Q412 482 465 449T548 360T578 234Q578 165 548 108T465 19T343 -13Q283 -13 231 17T154 100H151V-240H92V382Q92 425 89 468H146Q150 412 150 366H153Q180 421 231 451T343 482ZM335 433Q282 433 239 406T173 333T149 234Q149 180 173 135T239 63T335 36Q390 36 431 62T495 134T518 234Q518 288 495 333T431 406T335 433Z" horiz-adv-x="634" unicode="p"/>
			<glyph d="M291 482Q352 482 403 451T481 366H484Q484 400 488 468H544Q541 426 541 382V-98Q541 -140 556 -159T610 -191L583 -241Q483 -214 483 -110V100H480Q454 47 402 17T291 -13Q222 -13 168 19T85 108T56 234Q56 304 85 360T168 449T291 482ZM299 433Q243 433 201 406T137 333T115 234Q115 180 137 134T201 62T299 36Q352 36 394 63T461 135T485 234Q485 288 461 333T394 406T299 433Z" horiz-adv-x="634" unicode="q"/>
			<glyph d="M289 482Q315 482 339 474L327 423Q306 430 285 430Q224 430 188 372T153 233V0H94V354Q94 432 89 468H145Q150 426 150 367H152Q170 421 208 451T289 482Z" horiz-adv-x="342" unicode="r"/>
			<glyph d="M219 483Q263 483 302 468T368 433L343 390Q319 410 287 423T221 436Q177 436 148 416T119 357Q119 322 145 302T238 261Q312 237 347 206T382 123Q382 80 359 49T300 2T223 -13Q172 -13 127 1T55 39L65 90Q130 33 221 33Q264 33 295 56T326 121Q326 156 295 178T197 222Q130 244 97 272T64 354Q64 395 86 424T144 468T219 483Z" horiz-adv-x="432" unicode="s"/>
			<glyph d="M158 603V468H291L279 422H158V121Q158 78 176 58T226 38Q259 38 301 59L309 15Q288 4 262 -3T209 -10Q159 -10 129 22T100 113V422H12L24 468H99V580Z" horiz-adv-x="322" unicode="t"/>
			<glyph d="M86 468H145V198Q145 128 173 81T272 35Q316 35 351 58T407 127T428 235V468H486V109Q486 87 488 54T495 0L437 -1Q434 23 428 101Q408 49 360 18T257 -13Q169 -13 127 43T86 183Z" horiz-adv-x="582" unicode="u"/>
			<glyph d="M8 468H71L222 59L369 468H429L255 0H188Z" horiz-adv-x="440" unicode="v"/>
			<glyph d="M26 468H89L204 67H207L338 468H402L535 67H537L653 468H714L569 0H505L370 399H368L235 0H170Z" horiz-adv-x="741" unicode="w"/>
			<glyph d="M39 468H110L242 285L374 468H444L278 247L466 0H392L241 207L90 0H19L205 246Z" horiz-adv-x="485" unicode="x"/>
			<glyph d="M18 468H83L245 62L387 468H450L232 -118Q209 -181 168 -209T63 -240L47 -188Q100 -186 130 -167T179 -102L215 -4Z" horiz-adv-x="468" unicode="y"/>
			<glyph d="M58 468H398V422L111 48H417L407 0H41V46L329 422H46Z" horiz-adv-x="452" unicode="z"/>
			<glyph d="M189 732H246V689H199Q162 689 145 664T128 597V411Q128 352 105 323T51 289V287Q81 282 104 253T128 165V-21Q128 -64 145 -88T199 -113H246V-156H189Q138 -156 107 -124T77 -27V159Q77 217 57 241T1 266V310Q37 310 57 334T77 416V603Q77 669 107 700T189 732Z" horiz-adv-x="307" unicode="{"/>
			<glyph d="M87 750H138V-250H87Z" horiz-adv-x="225" unicode="|"/>
			<glyph d="M62 732H119Q170 732 200 700T230 603V416Q230 310 306 310V266Q230 266 230 159V-27Q230 -93 200 -124T119 -156H62V-113H109Q179 -113 179 -21V165Q179 224 202 253T257 287V289Q226 295 202 323T179 411V597Q179 689 109 689H62Z" horiz-adv-x="307" unicode="}"/>
			<glyph d="M224 367Q253 367 277 359T330 331Q398 286 442 286Q475 286 500 307T548 365L579 328Q520 235 445 235Q415 235 392 243T340 271Q300 297 277 306T228 316Q194 316 168 295T122 236L91 273Q146 367 224 367Z" horiz-adv-x="666" unicode="~"/>
			<glyph d="" horiz-adv-x="250" unicode=" "/>
			<glyph d="M152 495Q170 495 183 482T196 450Q196 431 183 418T152 405Q133 405 120 418T107 450Q107 468 120 481T152 495ZM123 287H180L183 -220H121Z" horiz-adv-x="303" unicode="¡"/>
			<glyph d="M306 546H344V483Q388 482 430 466T497 427L473 382Q450 404 415 417T344 433V37Q388 37 423 51T488 92L497 43Q471 20 430 4T344 -13V-73H306V-12Q243 -6 193 27T116 113T89 234Q89 300 116 353T193 440T306 481ZM306 431Q234 420 191 364T149 234Q149 160 191 105T306 40Z" horiz-adv-x="580" unicode="¢"/>
			<glyph d="M382 726Q421 726 458 714T523 685L500 636Q477 653 447 663T383 674Q307 674 273 624T240 497V390H418L406 343H240V172Q240 127 222 95T173 51H499L488 0H75V51H86Q134 51 157 85T180 166V343H71L83 390H180V502Q180 600 231 663T382 726Z" horiz-adv-x="580" unicode="£"/>
			<glyph d="M166 594L257 503Q325 560 422 560Q520 560 585 504L675 594L711 560L621 470Q673 404 673 310Q673 213 617 144L711 50L676 15L581 110Q514 56 422 56Q330 56 262 112L165 15Q149 34 130 50L226 146Q172 213 172 310Q172 403 223 468L130 560ZM422 508Q365 508 321 481T253 410T229 310Q229 254 253 208T321 136T422 109Q479 109 523 136T591 208T615 310Q615 365 591 410T523 481T422 508Z" horiz-adv-x="842" unicode="¤"/>
			<glyph d="M19 708H90L292 398L494 708H561L340 383H506L494 340H319V227H506L494 185H319V0H262V185H74L86 227H262V340H74L86 383H243Z" horiz-adv-x="580" unicode="¥"/>
			<glyph d="M89 675H136V334H89ZM89 169H136V-173H89Z" horiz-adv-x="225" unicode="¦"/>
			<glyph d="M304 727Q361 727 404 706T471 649L426 618Q410 645 377 661T304 678Q252 678 215 650T179 572Q179 541 192 522T236 485T339 438Q410 409 445 375T481 286Q481 232 448 197T367 150Q411 128 433 98T456 24Q456 -27 430 -63T361 -118T267 -136Q207 -136 157 -113T77 -47L125 -14Q147 -50 185 -68T268 -86Q321 -86 358 -58T396 21Q396 52 381 72T332 110T224 160Q177 181 150 198T108 241T93 307Q93 361 126 396T208 445Q164 468 142 495T121 572Q121 621 146 656T213 709T304 727ZM255 418Q212 411 180 385T148 312Q148 281 163 261T199 229T263 199L321 176Q364 181 394 207T425 279Q425 322 395 347T309 396Z" horiz-adv-x="573" unicode="§"/>
			<glyph d="M38 697Q55 697 67 685T79 656Q79 638 67 626T38 614Q21 614 9 626T-3 656Q-3 673 9 685T38 697ZM213 697Q230 697 242 685T254 656Q254 638 242 626T213 614Q196 614 184 626T172 656Q172 673 184 685T213 697Z" horiz-adv-x="250" unicode="¨"/>
			<glyph d="M401 730Q504 730 591 679T729 542T780 353Q780 250 729 164T591 28T401 -22Q298 -22 210 28T71 164T20 353Q20 456 71 542T210 679T401 730ZM401 693Q308 693 229 647T105 524T59 353Q59 261 105 183T229 60T401 15Q493 15 571 60T695 183T741 353Q741 446 695 524T572 647T401 693ZM416 579Q456 579 497 565T563 530L547 486Q523 508 488 521T416 535Q365 535 326 510T266 444T245 353Q245 304 266 262T326 196T417 172Q455 172 490 185T548 220L554 175Q532 153 495 140T416 127Q353 127 302 155T222 235T194 353Q194 418 222 469T302 550T416 579Z" horiz-adv-x="800" unicode="©"/>
			<glyph d="M179 721Q237 721 267 692T297 612V490Q297 456 302 431H261Q256 453 256 484H255Q239 455 210 439T147 424Q108 424 77 445T46 510Q46 569 102 587T254 606V615Q254 650 233 668T176 686Q149 686 122 676T74 651L62 684Q112 721 179 721ZM240 575Q170 575 129 562T89 511Q89 483 109 470T159 458Q203 458 229 485T255 554V575Z" horiz-adv-x="358" unicode="ª"/>
			<glyph d="M198 446L236 421L122 241L237 61L198 34L65 241ZM378 446L417 421L302 241L417 61L379 34L245 241Z" horiz-adv-x="492" unicode="«"/>
			<glyph d="M82 411H583V135H532V363H82Z" horiz-adv-x="666" unicode="¬"/>
			<glyph d="M53 277H257V228H53Z" horiz-adv-x="309" unicode="­"/>
			<glyph d="M301 720Q363 720 415 690T497 608T528 494Q528 432 497 380T415 299T301 269Q239 269 186 299T103 380T72 494Q72 556 103 608T186 690T301 720ZM301 693Q246 693 200 666T127 593T100 494Q100 440 127 394T200 320T301 293Q355 293 400 320T473 394T500 494Q500 548 473 593T400 666T301 693ZM215 624H306Q347 624 372 605T398 549Q398 520 380 502T336 480L408 368H362L297 476H254V368H215ZM254 591V505H295Q358 505 358 550Q358 572 343 581T305 591Z" horiz-adv-x="600" unicode="®"/>
			<glyph d="M-5 652H255V613H-5Z" horiz-adv-x="250" unicode="¯"/>
			<glyph d="M201 718Q242 718 276 698T331 644T351 569Q351 528 331 493T276 439T201 419Q160 419 125 439T71 493T52 569Q52 610 71 644T125 698T201 718ZM201 682Q155 682 122 649T89 569Q89 522 122 489T201 456Q248 456 281 489T314 569Q314 616 281 649T201 682Z" horiz-adv-x="403" unicode="°"/>
			<glyph d="M307 565H358V390H585V342H358V170H308V342H84V390H307ZM87 94H582V45H87Z" horiz-adv-x="666" unicode="±"/>
			<glyph d="M176 884Q233 884 267 853T302 772Q302 734 283 702T223 627L94 493H315L303 452H38V491L195 660Q227 695 240 719T253 767Q253 802 230 822T173 843Q115 843 67 787L46 825Q96 884 176 884Z" horiz-adv-x="354" unicode="²"/>
			<glyph d="M171 884Q227 884 260 855T293 774Q293 738 272 711T216 675Q258 667 282 637T306 567Q306 508 266 475T170 442Q129 442 96 454T44 487L59 528Q75 510 106 496T168 483Q210 483 234 505T259 568Q259 609 227 631T152 653H130V691H152Q196 691 221 714T246 773Q246 807 224 826T168 845Q140 845 113 832T71 803L53 838Q101 884 171 884Z" horiz-adv-x="363" unicode="³"/>
			<glyph d="M180 709H248L126 565H78Z" horiz-adv-x="250" unicode="´"/>
			<glyph d="M86 468H143V195Q143 121 181 82T290 43Q376 43 414 93T452 240V468H509V0H462L455 91H452Q408 -10 289 -10Q235 -10 198 9T144 64H142L143 -30V-240H86Z" horiz-adv-x="596" unicode="µ"/>
			<glyph d="M287 708H506V-127H457V667H322V-127H273V333Q210 333 161 357T86 423T60 515Q60 610 120 659T287 708Z" horiz-adv-x="603" unicode="¶"/>
			<glyph d="M128 321Q146 321 159 308T173 276Q173 257 159 244T128 231Q109 231 96 244T84 276Q84 295 96 308T128 321Z" horiz-adv-x="255" unicode="·"/>
			<glyph d="M117 0H155L101 -79Q122 -73 144 -73Q180 -73 206 -90T232 -144Q232 -190 195 -209T112 -229Q90 -229 64 -223T16 -208L27 -179Q62 -196 110 -196Q140 -196 163 -184T186 -144Q186 -121 168 -110T124 -100Q111 -100 94 -103T66 -112L50 -98Z" horiz-adv-x="250" unicode="¸"/>
			<glyph d="M176 875H220V452H172V820L79 752L61 794Z" unicode="¹"/>
			<glyph d="M180 722Q244 722 285 680T327 573Q327 508 285 466T180 424Q115 424 73 466T32 573Q32 639 73 680T180 722ZM180 684Q132 684 103 652T75 573Q75 526 103 493T180 461Q228 461 256 493T284 573Q284 620 256 652T180 684Z" horiz-adv-x="358" unicode="º"/>
			<glyph d="M113 447L248 241L114 35L75 61L190 241L75 421ZM293 447L428 241L294 35L256 61L370 241L256 421Z" horiz-adv-x="492" unicode="»"/>
			<glyph d="M605 738L642 717L209 -28L172 -8ZM180 708H223V284H175V653L83 586L65 627ZM653 423H710V141H774V100H710V0H666V100H473V142ZM663 367L519 141H666V367Z" horiz-adv-x="834" unicode="¼"/>
			<glyph d="M604 738L642 717L208 -28L171 -8ZM176 708H220V284H172V653L79 585L61 627ZM631 433Q687 433 722 401T757 320Q757 282 738 250T677 175L549 41H769L758 0H493V40L650 208Q682 243 695 267T708 316Q708 351 685 371T627 391Q570 391 522 335L501 373Q552 433 631 433Z" horiz-adv-x="834" unicode="½"/>
			<glyph d="M602 738L640 717L206 -28L169 -8ZM171 719Q226 719 259 689T293 608Q293 572 272 546T216 509Q258 501 282 472T306 402Q306 342 267 309T170 276Q130 276 97 288T44 322L59 362Q75 344 106 330T168 317Q210 317 234 340T259 403Q259 444 227 466T152 488H130V525H152Q196 525 221 548T246 607Q246 641 224 660T168 679Q140 679 113 666T71 637L53 672Q100 719 171 719ZM653 423H711V141H775V100H711V0H667V100H473V142ZM664 367L520 141H667V367Z" horiz-adv-x="834" unicode="¾"/>
			<glyph d="M255 495Q274 495 286 482T299 450Q299 431 286 418T255 405Q238 405 225 418T212 450Q212 468 224 481T255 495ZM230 285H287V253Q287 208 270 171T210 91Q176 58 159 38T131 -7T120 -64Q120 -118 159 -151T257 -184Q310 -184 353 -161T425 -105L454 -151Q419 -188 369 -212T252 -236Q199 -236 155 -216T85 -157T59 -65Q59 -26 71 4T102 55T156 111Q188 142 203 164T224 208T230 264Z" horiz-adv-x="487" unicode="¿"/>
			<glyph d="M315 708H378L675 0H608L500 262H185L77 0H11ZM345 647L205 313H481ZM205 908H273L375 764H327Z" horiz-adv-x="686" unicode="À"/>
			<glyph d="M315 708H378L675 0H608L500 262H185L77 0H11ZM345 647L205 313H481ZM421 908H488L366 764H318Z" horiz-adv-x="686" unicode="Á"/>
			<glyph d="M315 708H378L675 0H608L500 262H185L77 0H11ZM345 647L205 313H481ZM315 908H377L485 764H433L346 881L259 764H207Z" horiz-adv-x="686" unicode="Â"/>
			<glyph d="M315 708H378L675 0H608L500 262H185L77 0H11ZM345 647L205 313H481ZM454 874H487Q482 833 463 809T412 786Q396 786 381 791T343 810Q321 823 307 828T281 833Q248 833 238 784H206Q211 825 230 849T281 873Q297 873 312 867T350 850Q373 837 386 832T412 827Q446 827 454 874Z" horiz-adv-x="686" unicode="Ã"/>
			<glyph d="M315 708H378L675 0H608L500 262H185L77 0H11ZM345 647L205 313H481ZM259 895Q276 895 288 883T300 854Q300 836 288 824T259 813Q242 813 230 825T218 854Q218 871 230 883T259 895ZM434 895Q451 895 463 883T475 854Q475 836 463 824T434 813Q417 813 405 825T393 854Q393 871 405 883T434 895Z" horiz-adv-x="686" unicode="Ä"/>
			<glyph d="M315 708H378L675 0H608L500 262H185L77 0H11ZM345 647L205 313H481ZM346 948Q387 948 415 920T444 851Q444 810 415 782T346 754Q306 754 277 782T248 851Q248 892 277 920T346 948ZM346 921Q317 921 296 900T276 851Q276 822 296 801T346 781Q375 781 395 801T416 851Q416 880 395 900T346 921Z" horiz-adv-x="686" unicode="Å"/>
			<glyph d="M465 708H885L873 655H561V392H852L841 341H561V54H901L889 0H502V259H250L84 0H13ZM497 655L278 310H502V655Z" horiz-adv-x="955" unicode="Æ"/>
			<glyph d="M430 727Q501 727 568 703T676 643L658 583Q621 621 559 646T431 672Q342 672 272 629T165 514T127 354Q127 266 165 193T272 78T432 36Q501 36 561 62T665 131L679 76Q642 37 573 9T429 -19H428L388 -79Q409 -73 430 -73Q466 -73 492 -90T519 -144Q519 -190 482 -209T399 -229Q377 -229 350 -223T303 -208L314 -179Q349 -196 397 -196Q427 -196 450 -184T473 -144Q473 -121 454 -110T410 -100Q397 -100 380 -103T353 -112L337 -98L392 -17Q296 -9 221 41T104 172T62 354Q62 461 109 546T241 679T430 727Z" horiz-adv-x="718" unicode="Ç"/>
			<glyph d="M97 708H476L464 655H156V392H452L440 341H156V54H491L479 0H97ZM160 910H228L330 766H282Z" horiz-adv-x="545" unicode="È"/>
			<glyph d="M97 708H476L464 655H156V392H452L440 341H156V54H491L479 0H97ZM341 906H408L286 762H238Z" horiz-adv-x="545" unicode="É"/>
			<glyph d="M97 708H476L464 655H156V392H452L440 341H156V54H491L479 0H97ZM261 906H323L431 762H379L292 879L205 762H153Z" horiz-adv-x="545" unicode="Ê"/>
			<glyph d="M97 708H476L464 655H156V392H452L440 341H156V54H491L479 0H97ZM194 895Q211 895 223 883T235 854Q235 836 223 824T194 813Q177 813 165 825T153 854Q153 871 165 883T194 895ZM369 895Q386 895 398 883T410 854Q410 836 398 824T369 813Q352 813 340 825T328 854Q328 871 340 883T369 895Z" horiz-adv-x="545" unicode="Ë"/>
			<glyph d="M97 708H158V0H97ZM-12 908H56L158 764H110Z" horiz-adv-x="255" unicode="Ì"/>
			<glyph d="M97 708H158V0H97ZM199 908H266L144 764H96Z" horiz-adv-x="255" unicode="Í"/>
			<glyph d="M97 708H158V0H97ZM95 908H157L265 764H213L126 881L39 764H-13Z" horiz-adv-x="255" unicode="Î"/>
			<glyph d="M97 708H158V0H97ZM40 895Q57 895 69 883T81 854Q81 836 69 824T40 813Q23 813 11 825T-1 854Q-1 871 11 883T40 895ZM215 895Q232 895 244 883T256 854Q256 836 244 824T215 813Q198 813 186 825T174 854Q174 871 186 883T215 895Z" horiz-adv-x="255" unicode="Ï"/>
			<glyph d="M95 708H317Q424 708 511 669T650 551T702 354Q702 238 649 158T509 39T317 0H95V347H20V390H95ZM156 654V390H406V347H156V54H303Q403 54 479 88T597 190T639 354Q639 450 597 517T481 619T306 654Z" horiz-adv-x="767" unicode="Ð"/>
			<glyph d="M97 708H172L617 86H619V708H679V0H604L159 624H157V0H97ZM499 874H532Q527 833 508 809T457 786Q441 786 426 791T388 810Q366 823 352 828T326 833Q293 833 283 784H251Q256 825 275 849T326 873Q342 873 357 867T395 850Q418 837 431 832T457 827Q491 827 499 874Z" horiz-adv-x="776" unicode="Ñ"/>
			<glyph d="M432 727Q537 727 621 679T752 547T800 355Q800 247 752 162T620 29T432 -19Q327 -19 242 29T110 162T62 355Q62 462 110 547T242 679T432 727ZM432 673Q343 673 273 630T164 515T126 355Q126 267 164 194T272 78T432 36Q521 36 590 78T698 194T736 355Q736 443 697 515T590 630T432 673ZM318 908H386L488 764H440Z" horiz-adv-x="863" unicode="Ò"/>
			<glyph d="M432 727Q537 727 621 679T752 547T800 355Q800 247 752 162T620 29T432 -19Q327 -19 242 29T110 162T62 355Q62 462 110 547T242 679T432 727ZM432 673Q343 673 273 630T164 515T126 355Q126 267 164 194T272 78T432 36Q521 36 590 78T698 194T736 355Q736 443 697 515T590 630T432 673ZM489 908H556L434 764H386Z" horiz-adv-x="863" unicode="Ó"/>
			<glyph d="M432 727Q537 727 621 679T752 547T800 355Q800 247 752 162T620 29T432 -19Q327 -19 242 29T110 162T62 355Q62 462 110 547T242 679T432 727ZM432 673Q343 673 273 630T164 515T126 355Q126 267 164 194T272 78T432 36Q521 36 590 78T698 194T736 355Q736 443 697 515T590 630T432 673ZM401 908H463L571 764H519L432 881L345 764H293Z" horiz-adv-x="863" unicode="Ô"/>
			<glyph d="M432 727Q537 727 621 679T752 547T800 355Q800 247 752 162T620 29T432 -19Q327 -19 242 29T110 162T62 355Q62 462 110 547T242 679T432 727ZM432 673Q343 673 273 630T164 515T126 355Q126 267 164 194T272 78T432 36Q521 36 590 78T698 194T736 355Q736 443 697 515T590 630T432 673ZM541 874H574Q569 833 550 809T499 786Q483 786 468 791T430 810Q408 823 394 828T368 833Q335 833 325 784H293Q298 825 317 849T368 873Q384 873 399 867T437 850Q460 837 473 832T499 827Q533 827 541 874Z" horiz-adv-x="863" unicode="Õ"/>
			<glyph d="M432 727Q537 727 621 679T752 547T800 355Q800 247 752 162T620 29T432 -19Q327 -19 242 29T110 162T62 355Q62 462 110 547T242 679T432 727ZM432 673Q343 673 273 630T164 515T126 355Q126 267 164 194T272 78T432 36Q521 36 590 78T698 194T736 355Q736 443 697 515T590 630T432 673ZM345 895Q362 895 374 883T386 854Q386 836 374 824T345 813Q328 813 316 825T304 854Q304 871 316 883T345 895ZM520 895Q537 895 549 883T561 854Q561 836 549 824T520 813Q503 813 491 825T479 854Q479 871 491 883T520 895Z" horiz-adv-x="863" unicode="Ö"/>
			<glyph d="M159 513L334 340L507 513L541 480L368 306L542 132L507 98L334 270L160 98L125 132L300 305L125 479Z" horiz-adv-x="666" unicode="×"/>
			<glyph d="M728 734L757 707L685 625Q737 576 765 506T793 354Q793 247 745 162T612 29T424 -19Q354 -19 293 2T185 63L112 -18L83 8L156 90Q108 138 81 206T55 354Q55 462 102 547T234 679T424 727Q489 727 548 707T655 651ZM424 674Q334 674 264 631T155 515T117 354Q117 291 138 234T197 135L616 609Q578 640 529 657T424 674ZM644 580L225 106Q307 34 424 34Q515 34 584 77T692 193T730 354Q730 421 708 479T644 580Z" horiz-adv-x="863" unicode="Ø"/>
			<glyph d="M89 708H150V274Q150 175 197 105T364 35Q482 35 530 105T578 274V708H638V267Q638 142 571 61T364 -19Q223 -19 156 61T89 267ZM246 908H314L416 764H368Z" horiz-adv-x="727" unicode="Ù"/>
			<glyph d="M89 708H150V274Q150 175 197 105T364 35Q482 35 530 105T578 274V708H638V267Q638 142 571 61T364 -19Q223 -19 156 61T89 267ZM413 908H480L358 764H310Z" horiz-adv-x="727" unicode="Ú"/>
			<glyph d="M89 708H150V274Q150 175 197 105T364 35Q482 35 530 105T578 274V708H638V267Q638 142 571 61T364 -19Q223 -19 156 61T89 267ZM333 908H395L503 764H451L364 881L277 764H225Z" horiz-adv-x="727" unicode="Û"/>
			<glyph d="M89 708H150V274Q150 175 197 105T364 35Q482 35 530 105T578 274V708H638V267Q638 142 571 61T364 -19Q223 -19 156 61T89 267ZM277 895Q294 895 306 883T318 854Q318 836 306 824T277 813Q260 813 248 825T236 854Q236 871 248 883T277 895ZM452 895Q469 895 481 883T493 854Q493 836 481 824T452 813Q435 813 423 825T411 854Q411 871 423 883T452 895Z" horiz-adv-x="727" unicode="Ü"/>
			<glyph d="M5 708H79L290 360L501 708H572L319 307V0H258V307ZM365 908H432L310 764H262Z" horiz-adv-x="577" unicode="Ý"/>
			<glyph d="M97 708H158V557H303Q405 557 471 512T537 371Q537 277 473 227T309 178H158V0H97ZM158 506V229H305Q379 229 427 264T475 370Q475 442 426 474T302 506Z" horiz-adv-x="586" unicode="Þ"/>
			<glyph d="M306 768Q362 768 406 746T476 683T502 589Q502 525 467 484T376 428V426Q454 415 502 361T550 215Q550 147 521 96T439 17T317 -11Q291 -11 259 -6V45Q287 39 310 39Q392 39 440 86T489 217Q489 306 435 352T297 399H283V449H298Q360 449 401 484T443 586Q443 647 404 682T305 718Q222 718 186 664T150 531V0H92V533Q92 636 145 702T306 768Z" horiz-adv-x="604" unicode="ß"/>
			<glyph d="M258 483Q343 483 390 438T438 304V102Q438 37 446 0H392Q389 16 387 43T385 91H382Q361 40 312 13T207 -13Q146 -13 102 22T58 126Q58 281 326 281H383V308Q383 371 347 403T250 436Q212 436 170 419T101 378L84 424Q117 452 163 467T258 483ZM334 242Q114 242 114 128Q114 78 144 54T219 31Q272 31 309 55T364 118T383 195V242ZM150 709H218L320 565H272Z" horiz-adv-x="524" unicode="à"/>
			<glyph d="M258 483Q343 483 390 438T438 304V102Q438 37 446 0H392Q389 16 387 43T385 91H382Q361 40 312 13T207 -13Q146 -13 102 22T58 126Q58 281 326 281H383V308Q383 371 347 403T250 436Q212 436 170 419T101 378L84 424Q117 452 163 467T258 483ZM334 242Q114 242 114 128Q114 78 144 54T219 31Q272 31 309 55T364 118T383 195V242ZM322 709H390L268 565H220Z" horiz-adv-x="524" unicode="á"/>
			<glyph d="M258 483Q343 483 390 438T438 304V102Q438 37 446 0H392Q389 16 387 43T385 91H382Q361 40 312 13T207 -13Q146 -13 102 22T58 126Q58 281 326 281H383V308Q383 371 347 403T250 436Q212 436 170 419T101 378L84 424Q117 452 163 467T258 483ZM334 242Q114 242 114 128Q114 78 144 54T219 31Q272 31 309 55T364 118T383 195V242ZM229 709H291L399 565H347L260 683L173 565H121Z" horiz-adv-x="524" unicode="â"/>
			<glyph d="M258 483Q343 483 390 438T438 304V102Q438 37 446 0H392Q389 16 387 43T385 91H382Q361 40 312 13T207 -13Q146 -13 102 22T58 126Q58 281 326 281H383V308Q383 371 347 403T250 436Q212 436 170 419T101 378L84 424Q117 452 163 467T258 483ZM334 242Q114 242 114 128Q114 78 144 54T219 31Q272 31 309 55T364 118T383 195V242ZM369 676H402Q397 635 378 611T327 588Q310 588 295 593T258 611Q236 624 222 629T196 634Q163 634 153 585H121Q126 626 145 650T196 675Q213 675 228 669T265 651Q289 638 302 633T327 628Q361 628 369 676Z" horiz-adv-x="527" unicode="ã"/>
			<glyph d="M258 483Q343 483 390 438T438 304V102Q438 37 446 0H392Q389 16 387 43T385 91H382Q361 40 312 13T207 -13Q146 -13 102 22T58 126Q58 281 326 281H383V308Q383 371 347 403T250 436Q212 436 170 419T101 378L84 424Q117 452 163 467T258 483ZM334 242Q114 242 114 128Q114 78 144 54T219 31Q272 31 309 55T364 118T383 195V242ZM174 697Q191 697 203 685T215 656Q215 638 203 626T174 614Q157 614 145 626T133 656Q133 673 145 685T174 697ZM349 697Q366 697 378 685T390 656Q390 638 378 626T349 614Q332 614 320 626T308 656Q308 673 320 685T349 697Z" horiz-adv-x="524" unicode="ä"/>
			<glyph d="M258 483Q343 483 390 438T438 304V102Q438 37 446 0H392Q389 16 387 43T385 91H382Q361 40 312 13T207 -13Q146 -13 102 22T58 126Q58 281 326 281H383V308Q383 371 347 403T250 436Q212 436 170 419T101 378L84 424Q117 452 163 467T258 483ZM334 242Q114 242 114 128Q114 78 144 54T219 31Q272 31 309 55T364 118T383 195V242ZM261 750Q302 750 330 722T359 652Q359 611 330 583T261 555Q221 555 192 583T163 652Q163 693 192 721T261 750ZM261 722Q232 722 211 701T191 652Q191 623 211 603T261 583Q290 583 310 603T331 652Q331 681 310 701T261 722Z" horiz-adv-x="524" unicode="å"/>
			<glyph d="M262 483Q328 483 369 451T423 368Q449 421 496 452T604 483Q667 483 715 453T789 371T816 250L815 225H440Q441 176 460 132T519 62T614 35Q660 35 703 51T779 91L788 42Q755 18 709 2T609 -14Q542 -14 491 21T416 119Q400 59 350 23T224 -13Q156 -13 107 20T58 121Q58 268 334 268H386V300Q386 367 352 401T257 436Q175 436 106 376L87 422Q119 451 166 467T262 483ZM604 437Q553 437 516 410T460 343T440 268H759Q757 343 715 390T604 437ZM344 225Q239 225 177 204T115 122Q115 74 150 52T233 31Q311 31 349 76T387 189V225Z" horiz-adv-x="872" unicode="æ"/>
			<glyph d="M302 483Q347 483 391 467T461 427L437 382Q413 406 376 419T303 433Q248 433 205 406T140 333T117 234Q117 180 140 135T206 63T305 37Q350 37 385 51T452 92L461 43Q433 18 390 2T300 -14L255 -79Q276 -73 298 -73Q334 -73 360 -90T386 -144Q386 -190 349 -209T266 -229Q244 -229 218 -223T170 -208L182 -179Q217 -196 264 -196Q294 -196 317 -184T340 -144Q340 -121 322 -110T278 -100Q265 -100 248 -103T220 -112L204 -98L263 -11Q203 -3 156 30T82 116T56 234Q56 305 88 362T176 451T302 483Z" horiz-adv-x="489" unicode="ç"/>
			<glyph d="M288 483Q358 483 408 452T485 368T511 251Q511 234 510 226H113Q114 173 138 129T204 60T301 34Q352 34 397 51T473 95L483 45Q405 -14 296 -14Q227 -14 172 18T87 107T56 237Q56 308 86 364T170 451T288 483ZM288 437Q235 437 196 410T136 345T114 269H455Q453 345 408 391T288 437ZM166 709H234L336 565H288Z" horiz-adv-x="567" unicode="è"/>
			<glyph d="M288 483Q358 483 408 452T485 368T511 251Q511 234 510 226H113Q114 173 138 129T204 60T301 34Q352 34 397 51T473 95L483 45Q405 -14 296 -14Q227 -14 172 18T87 107T56 237Q56 308 86 364T170 451T288 483ZM288 437Q235 437 196 410T136 345T114 269H455Q453 345 408 391T288 437ZM349 709H417L295 565H247Z" horiz-adv-x="567" unicode="é"/>
			<glyph d="M288 483Q358 483 408 452T485 368T511 251Q511 234 510 226H113Q114 173 138 129T204 60T301 34Q352 34 397 51T473 95L483 45Q405 -14 296 -14Q227 -14 172 18T87 107T56 237Q56 308 86 364T170 451T288 483ZM288 437Q235 437 196 410T136 345T114 269H455Q453 345 408 391T288 437ZM263 709H325L433 565H381L294 683L207 565H155Z" horiz-adv-x="567" unicode="ê"/>
			<glyph d="M288 483Q358 483 408 452T485 368T511 251Q511 234 510 226H113Q114 173 138 129T204 60T301 34Q352 34 397 51T473 95L483 45Q405 -14 296 -14Q227 -14 172 18T87 107T56 237Q56 308 86 364T170 451T288 483ZM288 437Q235 437 196 410T136 345T114 269H455Q453 345 408 391T288 437ZM205 697Q222 697 234 685T246 656Q246 638 234 626T205 614Q188 614 176 626T164 656Q164 673 176 685T205 697ZM380 697Q397 697 409 685T421 656Q421 638 409 626T380 614Q363 614 351 626T339 656Q339 673 351 685T380 697Z" horiz-adv-x="567" unicode="ë"/>
			<glyph d="M93 468H152V0H93ZM-19 709H49L151 565H103Z" horiz-adv-x="244" unicode="ì"/>
			<glyph d="M93 468H152V0H93ZM195 709H263L141 565H93Z" horiz-adv-x="244" unicode="í"/>
			<glyph d="M93 468H152V0H93ZM93 709H155L263 565H211L124 683L37 565H-15Z" horiz-adv-x="244" unicode="î"/>
			<glyph d="M93 468H152V0H93ZM36 697Q53 697 65 685T77 656Q77 638 65 626T36 614Q19 614 7 626T-5 656Q-5 673 7 685T36 697ZM211 697Q228 697 240 685T252 656Q252 638 240 626T211 614Q194 614 182 626T170 656Q170 673 182 685T211 697Z" horiz-adv-x="244" unicode="ï"/>
			<glyph d="M227 773Q265 748 324 693L430 749L464 720L357 664Q432 588 492 476T553 248Q553 174 523 114T436 20T303 -14Q232 -14 175 18T87 106T55 235Q55 307 86 363T174 450T301 482Q393 482 456 419L460 421Q433 481 390 541T306 640L194 582L165 611L274 669Q232 710 180 745ZM303 432Q245 432 202 406T136 335T113 235Q113 180 136 134T202 62T303 36Q360 36 403 62T470 134T494 235Q494 290 470 335T403 406T303 432Z" horiz-adv-x="611" unicode="ð"/>
			<glyph d="M321 482Q410 482 452 426T495 286V0H436V271Q436 340 407 386T309 433Q266 433 230 410T173 343T153 239V0H94V359Q94 432 90 468H145Q150 428 150 367H152Q172 419 218 450T321 482ZM402 676H435Q430 635 411 611T360 588Q343 588 328 593T291 611Q269 624 255 629T229 634Q196 634 186 585H154Q159 626 178 650T229 675Q246 675 261 669T298 651Q322 638 335 633T360 628Q394 628 402 676Z" horiz-adv-x="582" unicode="ñ"/>
			<glyph d="M305 483Q376 483 433 451T522 363T555 235Q555 164 522 107T433 18T305 -14Q234 -14 177 18T88 107T56 235Q56 307 88 363T177 451T305 483ZM305 433Q248 433 204 406T138 335T115 235Q115 181 138 135T204 63T305 36Q363 36 406 63T473 135T496 235Q496 290 472 335T405 406T305 433ZM182 709H250L352 565H304Z" horiz-adv-x="611" unicode="ò"/>
			<glyph d="M305 483Q376 483 433 451T522 363T555 235Q555 164 522 107T433 18T305 -14Q234 -14 177 18T88 107T56 235Q56 307 88 363T177 451T305 483ZM305 433Q248 433 204 406T138 335T115 235Q115 181 138 135T204 63T305 36Q363 36 406 63T473 135T496 235Q496 290 472 335T405 406T305 433ZM362 709H430L308 565H260Z" horiz-adv-x="611" unicode="ó"/>
			<glyph d="M305 483Q376 483 433 451T522 363T555 235Q555 164 522 107T433 18T305 -14Q234 -14 177 18T88 107T56 235Q56 307 88 363T177 451T305 483ZM305 433Q248 433 204 406T138 335T115 235Q115 181 138 135T204 63T305 36Q363 36 406 63T473 135T496 235Q496 290 472 335T405 406T305 433ZM275 709H337L445 565H393L306 683L219 565H167Z" horiz-adv-x="611" unicode="ô"/>
			<glyph d="M305 483Q376 483 433 451T522 363T555 235Q555 164 522 107T433 18T305 -14Q234 -14 177 18T88 107T56 235Q56 307 88 363T177 451T305 483ZM305 433Q248 433 204 406T138 335T115 235Q115 181 138 135T204 63T305 36Q363 36 406 63T473 135T496 235Q496 290 472 335T405 406T305 433ZM414 676H447Q442 635 423 611T372 588Q355 588 340 593T303 611Q281 624 267 629T241 634Q208 634 198 585H166Q171 626 190 650T241 675Q258 675 273 669T310 651Q334 638 347 633T372 628Q406 628 414 676Z" horiz-adv-x="611" unicode="õ"/>
			<glyph d="M305 483Q376 483 433 451T522 363T555 235Q555 164 522 107T433 18T305 -14Q234 -14 177 18T88 107T56 235Q56 307 88 363T177 451T305 483ZM305 433Q248 433 204 406T138 335T115 235Q115 181 138 135T204 63T305 36Q363 36 406 63T473 135T496 235Q496 290 472 335T405 406T305 433ZM220 697Q237 697 249 685T261 656Q261 638 249 626T220 614Q203 614 191 626T179 656Q179 673 191 685T220 697ZM395 697Q412 697 424 685T436 656Q436 638 424 626T395 614Q378 614 366 626T354 656Q354 673 366 685T395 697Z" horiz-adv-x="611" unicode="ö"/>
			<glyph d="M333 522Q353 522 368 507T383 472Q383 451 368 436T333 422Q313 422 298 436T284 472Q284 492 298 507T333 522ZM87 327H579V279H87ZM333 184Q353 184 368 169T383 134Q383 114 368 99T333 84Q313 84 298 99T284 134Q284 155 298 169T333 184Z" horiz-adv-x="666" unicode="÷"/>
			<glyph d="M530 491L557 465L493 402Q523 371 539 328T555 235Q555 163 523 106T434 18T305 -14Q256 -14 213 2T140 47L72 -22L45 4L113 72Q86 104 71 145T56 235Q56 306 88 363T177 451T305 483Q397 483 467 428ZM305 435Q247 435 203 408T137 336T114 236Q114 200 123 167T152 111L430 391Q379 435 305 435ZM454 364L176 84Q199 60 232 47T305 35Q363 35 406 61T473 134T497 235Q497 272 486 305T454 364Z" horiz-adv-x="611" unicode="ø"/>
			<glyph d="M86 468H145V198Q145 128 173 81T272 35Q316 35 351 58T407 127T428 235V468H486V109Q486 87 488 54T495 0L437 -1Q434 23 428 101Q408 49 360 18T257 -13Q169 -13 127 43T86 183ZM152 709H220L322 565H274Z" horiz-adv-x="582" unicode="ù"/>
			<glyph d="M86 468H145V198Q145 128 173 81T272 35Q316 35 351 58T407 127T428 235V468H486V109Q486 87 488 54T495 0L437 -1Q434 23 428 101Q408 49 360 18T257 -13Q169 -13 127 43T86 183ZM335 709H403L281 565H233Z" horiz-adv-x="582" unicode="ú"/>
			<glyph d="M86 468H145V198Q145 128 173 81T272 35Q316 35 351 58T407 127T428 235V468H486V109Q486 87 488 54T495 0L437 -1Q434 23 428 101Q408 49 360 18T257 -13Q169 -13 127 43T86 183ZM253 709H315L423 565H371L284 683L197 565H145Z" horiz-adv-x="582" unicode="û"/>
			<glyph d="M86 468H145V198Q145 128 173 81T272 35Q316 35 351 58T407 127T428 235V468H486V109Q486 87 488 54T495 0L437 -1Q434 23 428 101Q408 49 360 18T257 -13Q169 -13 127 43T86 183ZM199 697Q216 697 228 685T240 656Q240 638 228 626T199 614Q182 614 170 626T158 656Q158 673 170 685T199 697ZM374 697Q391 697 403 685T415 656Q415 638 403 626T374 614Q357 614 345 626T333 656Q333 673 345 685T374 697Z" horiz-adv-x="582" unicode="ü"/>
			<glyph d="M18 468H83L245 62L387 468H450L232 -118Q209 -181 168 -209T63 -240L47 -188Q100 -186 130 -167T179 -102L215 -4ZM303 709H371L249 565H201Z" horiz-adv-x="468" unicode="ý"/>
			<glyph d="M93 756H151V367H154Q181 422 231 452T343 482Q411 482 464 449T547 360T577 234Q577 165 547 108T463 19T342 -13Q282 -13 230 17T153 101H151V-240H93ZM334 433Q280 433 237 406T171 333T148 234Q148 180 171 134T237 62T334 36Q389 36 431 63T496 135T519 234Q519 288 496 333T431 406T334 433Z" horiz-adv-x="633" unicode="þ"/>
			<glyph d="M18 468H83L245 62L387 468H450L232 -118Q209 -181 168 -209T63 -240L47 -188Q100 -186 130 -167T179 -102L215 -4ZM152 697Q169 697 181 685T193 656Q193 638 181 626T152 614Q135 614 123 626T111 656Q111 673 123 685T152 697ZM327 697Q344 697 356 685T368 656Q368 638 356 626T327 614Q310 614 298 626T286 656Q286 673 298 685T327 697Z" horiz-adv-x="468" unicode="ÿ"/>
			<glyph d="M315 708H378L675 0H608L500 262H185L77 0H11ZM345 647L205 313H481ZM216 851H476V811H216Z" horiz-adv-x="686" unicode="Ā"/>
			<glyph d="M258 483Q343 483 390 438T438 304V102Q438 37 446 0H392Q389 16 387 43T385 91H382Q361 40 312 13T207 -13Q146 -13 102 22T58 126Q58 281 326 281H383V308Q383 371 347 403T250 436Q212 436 170 419T101 378L84 424Q117 452 163 467T258 483ZM334 242Q114 242 114 128Q114 78 144 54T219 31Q272 31 309 55T364 118T383 195V242ZM138 652H398V613H138Z" horiz-adv-x="524" unicode="ā"/>
			<glyph d="M315 708H378L675 0H608L500 262H185L77 0H11ZM345 647L205 313H481ZM206 902H242Q250 858 277 835T344 813Q430 813 448 902H485Q477 839 439 805T344 771Q287 771 249 805T206 902Z" horiz-adv-x="686" unicode="Ă"/>
			<glyph d="M258 483Q343 483 390 438T438 304V102Q438 37 446 0H392Q389 16 387 43T385 91H382Q361 40 312 13T207 -13Q146 -13 102 22T58 126Q58 281 326 281H383V308Q383 371 347 403T250 436Q212 436 170 419T101 378L84 424Q117 452 163 467T258 483ZM334 242Q114 242 114 128Q114 78 144 54T219 31Q272 31 309 55T364 118T383 195V242ZM130 704H166Q174 660 201 637T268 614Q354 614 372 704H409Q401 641 363 607T268 573Q211 573 173 607T130 704Z" horiz-adv-x="524" unicode="ă"/>
			<glyph d="M315 708H378L675 0H650Q603 -45 582 -74T562 -132Q562 -157 577 -172T618 -187Q635 -187 651 -180T679 -161L696 -191Q679 -207 655 -216T606 -225Q568 -225 541 -202T515 -142Q515 -106 540 -72T608 0L500 262H185L77 0H11ZM345 647L205 313H481Z" horiz-adv-x="686" unicode="Ą"/>
			<glyph d="M258 483Q343 483 390 438T438 304V102Q438 37 446 0H435Q388 -45 367 -74T347 -132Q347 -157 362 -172T403 -187Q420 -187 436 -180T465 -161L481 -191Q464 -207 440 -216T392 -225Q354 -225 327 -202T301 -142Q301 -105 326 -71T394 0H392Q389 16 387 43T385 91H382Q361 40 312 13T207 -13Q146 -13 102 22T58 126Q58 281 326 281H383V308Q383 371 347 403T250 436Q212 436 170 419T101 378L84 424Q117 452 163 467T258 483ZM334 242Q114 242 114 128Q114 78 144 54T219 31Q272 31 309 55T364 118T383 195V242Z" horiz-adv-x="524" unicode="ą"/>
			<glyph d="M430 727Q501 727 568 703T676 643L658 583Q621 621 559 646T431 672Q342 672 272 629T165 514T127 354Q127 266 165 193T272 78T432 36Q501 36 561 62T665 131L679 76Q642 37 573 9T429 -19Q323 -19 239 29T109 162T62 354Q62 461 109 546T241 679T430 727ZM478 908H545L423 764H375Z" horiz-adv-x="718" unicode="Ć"/>
			<glyph d="M302 483Q347 483 391 467T461 427L437 382Q413 406 376 419T303 433Q248 433 205 406T140 333T117 234Q117 180 140 135T206 63T305 37Q350 37 385 51T452 92L461 43Q433 18 390 2T300 -14Q230 -14 174 17T87 105T56 234Q56 305 88 362T176 451T302 483ZM343 709H411L289 565H241Z" horiz-adv-x="489" unicode="ć"/>
			<glyph d="M430 727Q501 727 568 703T676 643L658 583Q621 621 559 646T431 672Q342 672 272 629T165 514T127 354Q127 266 165 193T272 78T432 36Q501 36 561 62T665 131L679 76Q642 37 573 9T429 -19Q323 -19 239 29T109 162T62 354Q62 461 109 546T241 679T430 727ZM398 908H460L568 764H516L429 881L342 764H290Z" horiz-adv-x="718" unicode="Ĉ"/>
			<glyph d="M302 483Q347 483 391 467T461 427L437 382Q413 406 376 419T303 433Q248 433 205 406T140 333T117 234Q117 180 140 135T206 63T305 37Q350 37 385 51T452 92L461 43Q433 18 390 2T300 -14Q230 -14 174 17T87 105T56 234Q56 305 88 362T176 451T302 483ZM254 709H316L424 565H372L285 683L198 565H146Z" horiz-adv-x="489" unicode="ĉ"/>
			<glyph d="M430 727Q501 727 568 703T676 643L658 583Q621 621 559 646T431 672Q342 672 272 629T165 514T127 354Q127 266 165 193T272 78T432 36Q501 36 561 62T665 131L679 76Q642 37 573 9T429 -19Q323 -19 239 29T109 162T62 354Q62 461 109 546T241 679T430 727ZM426 896Q443 896 455 884T468 855Q468 837 455 825T426 813Q409 813 397 825T385 855Q385 872 397 884T426 896Z" horiz-adv-x="718" unicode="Ċ"/>
			<glyph d="M302 483Q347 483 391 467T461 427L437 382Q413 406 376 419T303 433Q248 433 205 406T140 333T117 234Q117 180 140 135T206 63T305 37Q350 37 385 51T452 92L461 43Q433 18 390 2T300 -14Q230 -14 174 17T87 105T56 234Q56 305 88 362T176 451T302 483ZM291 698Q308 698 320 685T333 656Q333 638 320 626T291 614Q274 614 262 626T250 656Q250 673 262 685T291 698Z" horiz-adv-x="489" unicode="ċ"/>
			<glyph d="M430 727Q501 727 568 703T676 643L658 583Q621 621 559 646T431 672Q342 672 272 629T165 514T127 354Q127 266 165 193T272 78T432 36Q501 36 561 62T665 131L679 76Q642 37 573 9T429 -19Q323 -19 239 29T109 162T62 354Q62 461 109 546T241 679T430 727ZM290 908H342L429 791L516 908H568L460 764H398Z" horiz-adv-x="718" unicode="Č"/>
			<glyph d="M302 483Q347 483 391 467T461 427L437 382Q413 406 376 419T303 433Q248 433 205 406T140 333T117 234Q117 180 140 135T206 63T305 37Q350 37 385 51T452 92L461 43Q433 18 390 2T300 -14Q230 -14 174 17T87 105T56 234Q56 305 88 362T176 451T302 483ZM151 709H203L290 592L377 709H429L321 565H259Z" horiz-adv-x="489" unicode="č"/>
			<glyph d="M97 708H317Q424 708 512 670T652 552T705 354Q705 237 652 157T512 39T318 0H97ZM157 654V54H307Q406 54 481 88T599 189T642 354Q642 451 599 518T481 620T308 654ZM214 908H266L353 791L440 908H492L384 764H322Z" horiz-adv-x="767" unicode="Ď"/>
			<glyph d="M541 768V119Q541 67 546 0H490Q485 57 485 102H483Q454 47 402 17T291 -13Q222 -13 168 19T85 108T56 234Q56 303 85 360T168 449T291 482Q351 482 402 452T481 367H483V756ZM299 433Q243 433 201 406T137 333T115 234Q115 180 137 134T201 62T299 36Q352 36 394 63T461 135T485 234Q485 288 461 333T394 406T299 433ZM653 708H710L642 521H596Z" horiz-adv-x="683" unicode="ď"/>
			<glyph d="M95 708H317Q424 708 511 669T650 551T702 354Q702 238 649 158T509 39T317 0H95V347H20V390H95ZM156 654V390H406V347H156V54H303Q403 54 479 88T597 190T639 354Q639 450 597 517T481 619T306 654Z" horiz-adv-x="767" unicode="Đ"/>
			<glyph d="M483 756H541V609H603V570H541V106Q541 70 545 0H489Q485 45 485 102H483Q454 47 402 17T291 -13Q222 -13 168 19T85 108T56 234Q56 303 85 360T168 449T291 482Q351 482 402 452T481 367H483V570H296V609H483ZM299 433Q243 433 201 406T137 333T115 234Q115 180 137 134T201 62T299 36Q353 36 395 62T462 134T486 234Q486 288 462 333T395 406T299 433Z" horiz-adv-x="634" unicode="đ"/>
			<glyph d="M97 708H476L464 655H156V392H452L440 341H156V54H491L479 0H97ZM154 852H414V812H154Z" horiz-adv-x="545" unicode="Ē"/>
			<glyph d="M288 483Q358 483 408 452T485 368T511 251Q511 234 510 226H113Q114 173 138 129T204 60T301 34Q352 34 397 51T473 95L483 45Q405 -14 296 -14Q227 -14 172 18T87 107T56 237Q56 308 86 364T170 451T288 483ZM288 437Q235 437 196 410T136 345T114 269H455Q453 345 408 391T288 437ZM163 652H423V613H163Z" horiz-adv-x="567" unicode="ē"/>
			<glyph d="M97 708H476L464 655H156V392H452L440 341H156V54H491L479 0H97ZM149 890H185Q193 846 220 823T287 801Q373 801 391 890H428Q420 827 382 793T287 759Q230 759 192 793T149 890Z" horiz-adv-x="545" unicode="Ĕ"/>
			<glyph d="M288 483Q358 483 408 452T485 368T511 251Q511 234 510 226H113Q114 173 138 129T204 60T301 34Q352 34 397 51T473 95L483 45Q405 -14 296 -14Q227 -14 172 18T87 107T56 237Q56 308 86 364T170 451T288 483ZM288 437Q235 437 196 410T136 345T114 269H455Q453 345 408 391T288 437ZM155 704H191Q199 660 226 637T293 614Q379 614 397 704H434Q426 641 388 607T293 573Q236 573 198 607T155 704Z" horiz-adv-x="567" unicode="ĕ"/>
			<glyph d="M97 708H476L464 655H156V392H452L440 341H156V54H491L479 0H97ZM285 877Q302 877 314 865T327 836Q327 818 314 806T285 794Q268 794 256 806T244 836Q244 853 256 865T285 877Z" horiz-adv-x="545" unicode="Ė"/>
			<glyph d="M288 483Q358 483 408 452T485 368T511 251Q511 234 510 226H113Q114 173 138 129T204 60T301 34Q352 34 397 51T473 95L483 45Q405 -14 296 -14Q227 -14 172 18T87 107T56 237Q56 308 86 364T170 451T288 483ZM288 437Q235 437 196 410T136 345T114 269H455Q453 345 408 391T288 437ZM293 698Q310 698 322 685T335 656Q335 638 322 626T293 614Q276 614 264 626T252 656Q252 673 264 685T293 698Z" horiz-adv-x="567" unicode="ė"/>
			<glyph d="M97 708H476L464 655H156V392H452L440 341H156V54H491L479 0H413Q366 -45 345 -74T325 -132Q325 -157 340 -172T381 -187Q398 -187 414 -180T443 -161L459 -191Q442 -207 418 -216T369 -225Q331 -225 305 -202T279 -142Q279 -105 304 -71T372 0H97Z" horiz-adv-x="545" unicode="Ę"/>
			<glyph d="M288 483Q358 483 408 452T485 368T511 251Q511 234 510 226H113Q114 173 138 129T204 60T301 34Q352 34 397 51T473 95L483 45Q426 2 356 -9Q315 -49 296 -76T277 -132Q277 -157 292 -172T333 -187Q350 -187 366 -180T395 -161L411 -191Q394 -207 370 -216T322 -225Q284 -225 257 -202T231 -142Q231 -109 252 -78T309 -13L296 -14Q227 -14 172 18T87 107T56 237Q56 308 86 364T170 451T288 483ZM288 437Q235 437 196 410T136 345T114 269H455Q453 345 408 391T288 437Z" horiz-adv-x="567" unicode="ę"/>
			<glyph d="M97 708H476L464 655H156V392H452L440 341H156V54H491L479 0H97ZM151 907H203L290 790L377 907H429L321 763H259Z" horiz-adv-x="545" unicode="Ě"/>
			<glyph d="M288 483Q358 483 408 452T485 368T511 251Q511 234 510 226H113Q114 173 138 129T204 60T301 34Q352 34 397 51T473 95L483 45Q405 -14 296 -14Q227 -14 172 18T87 107T56 237Q56 308 86 364T170 451T288 483ZM288 437Q235 437 196 410T136 345T114 269H455Q453 345 408 391T288 437ZM153 709H205L292 592L379 709H431L323 565H261Z" horiz-adv-x="567" unicode="ě"/>
			<glyph d="M434 727Q505 727 572 706T684 652L664 599Q621 632 560 652T435 673Q344 673 273 630T164 515T126 355Q126 267 164 194T273 78T440 35Q551 35 639 78V316H469L480 367H697V44Q647 15 580 -2T437 -19Q328 -19 242 29T109 163T62 355Q62 462 110 547T242 679T434 727ZM402 908H464L572 764H520L433 881L346 764H294Z" horiz-adv-x="786" unicode="Ĝ"/>
			<glyph d="M291 482Q351 482 402 451T482 365H484Q484 411 489 468H544Q541 419 541 365V7Q541 -108 480 -177T292 -246Q234 -246 180 -230T86 -189L97 -135Q138 -162 188 -179T289 -196Q390 -196 436 -142T483 6V105H481Q455 52 403 21T291 -9Q222 -9 168 23T85 110T56 235Q56 303 85 359T169 449T291 482ZM299 433Q244 433 202 406T137 334T115 235Q115 182 137 137T202 66T299 39Q352 39 394 65T461 137T485 236Q485 289 461 334T394 406T299 433ZM278 709H340L448 565H396L309 683L222 565H170Z" horiz-adv-x="633" unicode="ĝ"/>
			<glyph d="M434 727Q505 727 572 706T684 652L664 599Q621 632 560 652T435 673Q344 673 273 630T164 515T126 355Q126 267 164 194T273 78T440 35Q551 35 639 78V316H469L480 367H697V44Q647 15 580 -2T437 -19Q328 -19 242 29T109 163T62 355Q62 462 110 547T242 679T434 727ZM295 902H331Q339 858 366 835T433 813Q519 813 537 902H574Q566 839 528 805T433 771Q376 771 338 805T295 902Z" horiz-adv-x="786" unicode="Ğ"/>
			<glyph d="M291 482Q351 482 402 451T482 365H484Q484 411 489 468H544Q541 419 541 365V7Q541 -108 480 -177T292 -246Q234 -246 180 -230T86 -189L97 -135Q138 -162 188 -179T289 -196Q390 -196 436 -142T483 6V105H481Q455 52 403 21T291 -9Q222 -9 168 23T85 110T56 235Q56 303 85 359T169 449T291 482ZM299 433Q244 433 202 406T137 334T115 235Q115 182 137 137T202 66T299 39Q352 39 394 65T461 137T485 236Q485 289 461 334T394 406T299 433ZM171 704H207Q215 660 242 637T309 614Q395 614 413 704H450Q442 641 404 607T309 573Q252 573 214 607T171 704Z" horiz-adv-x="633" unicode="ğ"/>
			<glyph d="M434 727Q505 727 572 706T684 652L664 599Q621 632 560 652T435 673Q344 673 273 630T164 515T126 355Q126 267 164 194T273 78T440 35Q551 35 639 78V316H469L480 367H697V44Q647 15 580 -2T437 -19Q328 -19 242 29T109 163T62 355Q62 462 110 547T242 679T434 727ZM431 896Q448 896 460 884T473 855Q473 837 460 825T431 813Q414 813 402 825T390 855Q390 872 402 884T431 896Z" horiz-adv-x="786" unicode="Ġ"/>
			<glyph d="M291 482Q351 482 402 451T482 365H484Q484 411 489 468H544Q541 419 541 365V7Q541 -108 480 -177T292 -246Q234 -246 180 -230T86 -189L97 -135Q138 -162 188 -179T289 -196Q390 -196 436 -142T483 6V105H481Q455 52 403 21T291 -9Q222 -9 168 23T85 110T56 235Q56 303 85 359T169 449T291 482ZM299 433Q244 433 202 406T137 334T115 235Q115 182 137 137T202 66T299 39Q352 39 394 65T461 137T485 236Q485 289 461 334T394 406T299 433ZM308 698Q325 698 337 685T350 656Q350 638 337 626T308 614Q291 614 279 626T267 656Q267 673 279 685T308 698Z" horiz-adv-x="633" unicode="ġ"/>
			<glyph d="M434 727Q505 727 572 706T684 652L664 599Q621 632 560 652T435 673Q344 673 273 630T164 515T126 355Q126 267 164 194T273 78T440 35Q551 35 639 78V316H469L480 367H697V44Q647 15 580 -2T437 -19Q328 -19 242 29T109 163T62 355Q62 462 110 547T242 679T434 727ZM416 -43H473L405 -230H359Z" horiz-adv-x="786" unicode="Ģ"/>
			<glyph d="M291 482Q351 482 402 451T482 365H484Q484 411 489 468H544Q541 419 541 365V7Q541 -108 480 -177T292 -246Q234 -246 180 -230T86 -189L97 -135Q138 -162 188 -179T289 -196Q390 -196 436 -142T483 6V105H481Q455 52 403 21T291 -9Q222 -9 168 23T85 110T56 235Q56 303 85 359T169 449T291 482ZM299 433Q244 433 202 406T137 334T115 235Q115 182 137 137T202 66T299 39Q352 39 394 65T461 137T485 236Q485 289 461 334T394 406T299 433ZM340 752H387L330 565H273Z" horiz-adv-x="633" unicode="ģ"/>
			<glyph d="M97 708H158V394H598V708H658V0H598V341H158V0H97ZM336 908H398L506 764H454L367 881L280 764H228Z" horiz-adv-x="750" unicode="Ĥ"/>
			<glyph d="M152 763V369H154Q173 421 219 451T322 482Q411 482 452 426T493 286V0H435V271Q435 340 406 386T307 433Q264 433 228 409T172 339T152 228V0H93V754ZM257 936H319L427 792H375L288 909L201 792H149Z" horiz-adv-x="581" unicode="ĥ"/>
			<glyph d="M97 708H158V539H598V708H658V0H598V341H158V0H97ZM158 500V394H598V500Z" horiz-adv-x="755" unicode="Ħ"/>
			<glyph d="M93 756H152V609H339V570H152V369H154Q173 421 219 451T322 482Q411 482 452 426T493 286V0H435V271Q435 340 406 386T307 433Q264 433 228 410T172 343T152 239V0H93V570H30V609H93Z" horiz-adv-x="581" unicode="ħ"/>
			<glyph d="M97 708H158V0H97ZM236 874H269Q264 833 245 809T194 786Q178 786 163 791T125 810Q103 823 89 828T63 833Q30 833 20 784H-12Q-7 825 12 849T63 873Q79 873 94 867T132 850Q155 837 168 832T194 827Q228 827 236 874Z" horiz-adv-x="255" unicode="Ĩ"/>
			<glyph d="M93 468H152V0H93ZM231 676H264Q259 635 240 611T189 588Q172 588 157 593T120 611Q98 624 84 629T58 634Q25 634 15 585H-17Q-12 626 7 650T58 675Q75 675 90 669T127 651Q151 638 164 633T189 628Q223 628 231 676Z" horiz-adv-x="244" unicode="ĩ"/>
			<glyph d="M97 708H158V0H97ZM-2 851H258V811H-2Z" horiz-adv-x="255" unicode="Ī"/>
			<glyph d="M93 468H152V0H93ZM-7 652H253V613H-7Z" horiz-adv-x="244" unicode="ī"/>
			<glyph d="M97 708H158V0H97ZM-12 902H24Q32 858 59 835T126 813Q212 813 230 902H267Q259 839 221 805T126 771Q69 771 31 805T-12 902Z" horiz-adv-x="255" unicode="Ĭ"/>
			<glyph d="M93 468H152V0H93ZM-17 704H19Q27 660 54 637T121 614Q207 614 225 704H262Q254 641 216 607T121 573Q64 573 26 607T-17 704Z" horiz-adv-x="244" unicode="ĭ"/>
			<glyph d="M97 708H158V0H156Q109 -45 88 -74T68 -132Q68 -157 83 -172T124 -187Q141 -187 157 -180T185 -161L202 -191Q185 -207 161 -216T112 -225Q74 -225 48 -202T22 -142Q22 -105 47 -71T115 0H97Z" horiz-adv-x="255" unicode="Į"/>
			<glyph d="M122 698Q139 698 151 686T164 656Q164 638 151 625T122 613Q105 613 92 625T80 656Q80 673 92 685T122 698ZM93 468H152V0H150Q103 -45 82 -74T62 -132Q62 -156 78 -171T118 -187Q135 -187 151 -180T180 -161L196 -191Q179 -207 155 -216T107 -225Q69 -225 42 -202T16 -142Q16 -106 41 -72T109 0H93Z" horiz-adv-x="244" unicode="į"/>
			<glyph d="M97 708H158V0H97ZM128 896Q145 896 157 884T170 855Q170 837 157 825T128 813Q111 813 99 825T87 855Q87 872 99 884T128 896Z" horiz-adv-x="255" unicode="İ"/>
			<glyph d="M93 468H152V0H93Z" horiz-adv-x="244" unicode="ı"/>
			<glyph d="M97 708H158V0H97ZM472 708H532V202Q532 105 484 43T339 -18Q311 -18 281 -13L270 45Q299 36 331 36Q404 36 438 82T472 207Z" horiz-adv-x="625" unicode="Ĳ"/>
			<glyph d="M122 698Q139 698 151 686T164 656Q164 638 151 625T122 613Q105 613 92 625T80 656Q80 673 92 685T122 698ZM93 468H152V0H93ZM367 698Q384 698 396 686T409 656Q409 638 396 625T367 613Q350 613 337 625T325 656Q325 673 337 685T367 698ZM338 468H396V-78Q396 -155 367 -196T267 -241L252 -191Q301 -191 319 -166T338 -76Z" horiz-adv-x="489" unicode="ĳ"/>
			<glyph d="M228 708H288V202Q288 105 240 43T95 -18Q67 -18 37 -13L26 45Q55 36 87 36Q160 36 194 82T228 207ZM217 908H279L387 764H335L248 881L161 764H109Z" horiz-adv-x="381" unicode="Ĵ"/>
			<glyph d="M94 468H152V-82Q152 -160 123 -200T20 -241Q-5 -241 -23 -235L-16 -187Q4 -191 15 -191Q64 -191 79 -162T94 -80ZM91 709H153L261 565H209L122 683L35 565H-17Z" horiz-adv-x="245" unicode="ĵ"/>
			<glyph d="M97 708H158V369L492 708H574L226 365L592 0H508L158 354V0H97ZM304 -45H361L293 -232H247Z" horiz-adv-x="606" unicode="Ķ"/>
			<glyph d="M152 763V256H154L372 468H449L218 253L471 0H395L154 244H152V0H93V753ZM246 -45H303L235 -232H189Z" horiz-adv-x="488" unicode="ķ"/>
			<glyph d="M93 468H152V259H154L372 468H450L217 253L473 0H394L154 243H152V0H93Z" horiz-adv-x="488" unicode="ĸ"/>
			<glyph d="M97 708H158V54H476L464 0H97ZM205 877H272L150 733H102Z" horiz-adv-x="506" unicode="Ĺ"/>
			<glyph d="M152 762V117Q152 83 161 66T196 38L169 -11Q135 1 114 29T93 104V751ZM198 922H265L143 778H95Z" horiz-adv-x="246" unicode="ĺ"/>
			<glyph d="M97 708H158V54H476L464 0H97ZM268 -45H325L257 -232H211Z" horiz-adv-x="506" unicode="Ļ"/>
			<glyph d="M152 762V117Q152 83 161 66T196 38L169 -11Q135 1 114 29T93 104V751ZM114 -45H171L103 -232H57Z" horiz-adv-x="246" unicode="ļ"/>
			<glyph d="M97 708H158V54H476L464 0H97ZM316 709H373L305 522H259Z" horiz-adv-x="506" unicode="Ľ"/>
			<glyph d="M152 762V117Q152 83 161 66T196 38L169 -11Q135 1 114 29T93 104V751ZM260 708H317L249 521H203Z" horiz-adv-x="290" unicode="ľ"/>
			<glyph d="M97 708H158V54H476L464 0H97ZM313 367Q330 367 342 354T355 325Q355 307 342 295T313 283Q296 283 284 295T272 325Q272 342 284 354T313 367Z" horiz-adv-x="506" unicode="Ŀ"/>
			<glyph d="M152 762V117Q152 83 161 66T196 38L169 -11Q135 1 114 29T93 104V751ZM243 408Q260 408 272 395T285 366Q285 348 272 336T243 324Q226 324 214 336T202 366Q202 383 214 395T243 408Z" horiz-adv-x="296" unicode="ŀ"/>
			<glyph d="M97 708H158V343L365 525V469L158 284V54H491L479 0H97V240L28 178V236L97 298Z" horiz-adv-x="506" unicode="Ł"/>
			<glyph d="M152 762V441L226 510V452L152 383V117Q152 83 161 66T196 38L169 -11Q135 1 114 29T93 104V335L28 272V332L93 394V751Z" horiz-adv-x="246" unicode="ł"/>
			<glyph d="M97 708H172L617 86H619V708H679V0H604L159 624H157V0H97ZM455 908H522L400 764H352Z" horiz-adv-x="776" unicode="Ń"/>
			<glyph d="M321 482Q410 482 452 426T495 286V0H436V271Q436 340 407 386T309 433Q266 433 230 410T173 343T153 239V0H94V359Q94 432 90 468H145Q150 428 150 367H152Q172 419 218 450T321 482ZM354 709H422L300 565H252Z" horiz-adv-x="582" unicode="ń"/>
			<glyph d="M97 708H172L617 86H619V708H679V0H604L159 624H157V0H97ZM362 -45H419L351 -232H305Z" horiz-adv-x="776" unicode="Ņ"/>
			<glyph d="M321 482Q410 482 452 426T495 286V0H436V271Q436 340 407 386T309 433Q266 433 230 410T173 343T153 239V0H94V359Q94 432 90 468H145Q150 428 150 367H152Q172 419 218 450T321 482ZM275 -46H332L264 -233H218Z" horiz-adv-x="582" unicode="ņ"/>
			<glyph d="M97 708H172L617 86H619V708H679V0H604L159 624H157V0H97ZM250 908H302L389 791L476 908H528L420 764H358Z" horiz-adv-x="776" unicode="Ň"/>
			<glyph d="M321 482Q410 482 452 426T495 286V0H436V271Q436 340 407 386T309 433Q266 433 230 410T173 343T153 239V0H94V359Q94 432 90 468H145Q150 428 150 367H152Q172 419 218 450T321 482ZM157 709H209L296 592L383 709H435L327 565H265Z" horiz-adv-x="582" unicode="ň"/>
			<glyph d="M337 482Q426 482 468 426T511 286V0H452V271Q452 340 423 386T325 433Q282 433 246 410T189 343T169 239V0H110V359Q110 432 106 468H161Q166 428 166 367H168Q188 419 234 450T337 482ZM82 720H139L71 533H25Z" horiz-adv-x="598" unicode="ŉ"/>
			<glyph d="M97 708H172L617 97H619V708H679V-82Q679 -160 650 -200T546 -241Q521 -241 503 -235L510 -187Q532 -191 542 -191Q590 -191 605 -162T620 -80V-10L159 624H157V0H97Z" horiz-adv-x="776" unicode="Ŋ"/>
			<glyph d="M323 482Q411 482 453 426T495 286V-82Q495 -160 466 -200T362 -241Q337 -241 320 -235L327 -187Q347 -191 358 -191Q406 -191 421 -162T436 -80V271Q436 340 407 386T309 433Q266 433 230 410T173 343T153 239V0H94V362Q94 432 90 468H146Q150 420 150 367H152Q172 419 219 450T323 482Z" horiz-adv-x="582" unicode="ŋ"/>
			<glyph d="M432 727Q537 727 621 679T752 547T800 355Q800 247 752 162T620 29T432 -19Q327 -19 242 29T110 162T62 355Q62 462 110 547T242 679T432 727ZM432 673Q343 673 273 630T164 515T126 355Q126 267 164 194T272 78T432 36Q521 36 590 78T698 194T736 355Q736 443 697 515T590 630T432 673ZM303 851H563V811H303Z" horiz-adv-x="863" unicode="Ō"/>
			<glyph d="M305 483Q376 483 433 451T522 363T555 235Q555 164 522 107T433 18T305 -14Q234 -14 177 18T88 107T56 235Q56 307 88 363T177 451T305 483ZM305 433Q248 433 204 406T138 335T115 235Q115 181 138 135T204 63T305 36Q363 36 406 63T473 135T496 235Q496 290 472 335T405 406T305 433ZM175 652H435V613H175Z" horiz-adv-x="611" unicode="ō"/>
			<glyph d="M432 727Q537 727 621 679T752 547T800 355Q800 247 752 162T620 29T432 -19Q327 -19 242 29T110 162T62 355Q62 462 110 547T242 679T432 727ZM432 673Q343 673 273 630T164 515T126 355Q126 267 164 194T272 78T432 36Q521 36 590 78T698 194T736 355Q736 443 697 515T590 630T432 673ZM292 902H328Q336 858 363 835T430 813Q516 813 534 902H571Q563 839 525 805T430 771Q373 771 335 805T292 902Z" horiz-adv-x="863" unicode="Ŏ"/>
			<glyph d="M305 483Q376 483 433 451T522 363T555 235Q555 164 522 107T433 18T305 -14Q234 -14 177 18T88 107T56 235Q56 307 88 363T177 451T305 483ZM305 433Q248 433 204 406T138 335T115 235Q115 181 138 135T204 63T305 36Q363 36 406 63T473 135T496 235Q496 290 472 335T405 406T305 433ZM167 704H203Q211 660 238 637T305 614Q391 614 409 704H446Q438 641 400 607T305 573Q248 573 210 607T167 704Z" horiz-adv-x="611" unicode="ŏ"/>
			<glyph d="M432 727Q537 727 621 679T752 547T800 355Q800 247 752 162T620 29T432 -19Q327 -19 242 29T110 162T62 355Q62 462 110 547T242 679T432 727ZM432 673Q343 673 273 630T164 515T126 355Q126 267 164 194T272 78T432 36Q521 36 590 78T698 194T736 355Q736 443 697 515T590 630T432 673ZM472 908H540L417 763H369ZM544 908H611L489 763H441Z" horiz-adv-x="863" unicode="Ő"/>
			<glyph d="M305 483Q376 483 433 451T522 363T555 235Q555 164 522 107T433 18T305 -14Q234 -14 177 18T88 107T56 235Q56 307 88 363T177 451T305 483ZM305 433Q248 433 204 406T138 335T115 235Q115 181 138 135T204 63T305 36Q363 36 406 63T473 135T496 235Q496 290 472 335T405 406T305 433ZM347 709H415L292 565H244ZM419 709H486L364 565H316Z" horiz-adv-x="611" unicode="ő"/>
			<glyph d="M454 708H932L921 655H585V392H901L889 341H585V54H948L936 0H454Q347 0 259 38T118 157T66 354Q66 471 118 551T259 669T454 708ZM464 655Q366 655 290 620T172 518T130 354Q130 257 172 189T290 88T463 54H526V655Z" horiz-adv-x="1002" unicode="Œ"/>
			<glyph d="M305 483Q380 483 437 446T521 348Q547 410 600 446T723 483Q793 483 843 451T918 367T944 250V225H548Q549 175 571 131T635 60T735 34Q787 34 831 50T908 91L918 43Q841 -14 730 -14Q657 -14 602 22T521 122Q494 59 437 22T305 -14Q233 -14 176 18T88 106T56 235Q56 307 88 363T176 451T305 483ZM722 437Q669 437 630 410T570 343T549 267H888Q886 343 841 390T722 437ZM305 433Q248 433 204 406T138 335T115 235Q115 181 138 135T204 63T305 36Q362 36 405 63T472 135T496 235Q496 290 472 335T405 406T305 433Z" horiz-adv-x="1000" unicode="œ"/>
			<glyph d="M97 708H292Q395 708 461 665T528 521Q528 441 479 389T363 322L563 0H492L304 312H158V0H97ZM157 658V361H289Q369 361 418 404T468 521Q468 594 416 626T281 658ZM329 910H396L274 766H226Z" horiz-adv-x="608" unicode="Ŕ"/>
			<glyph d="M289 482Q315 482 339 474L327 423Q306 430 285 430Q224 430 188 372T153 233V0H94V354Q94 432 89 468H145Q150 426 150 367H152Q170 421 208 451T289 482ZM221 709H289L167 565H119Z" horiz-adv-x="342" unicode="ŕ"/>
			<glyph d="M97 708H292Q395 708 461 665T528 521Q528 441 479 389T363 322L563 0H492L304 312H158V0H97ZM157 658V361H289Q369 361 418 404T468 521Q468 594 416 626T281 658ZM281 -45H338L270 -232H224Z" horiz-adv-x="608" unicode="Ŗ"/>
			<glyph d="M289 482Q315 482 339 474L327 423Q306 430 285 430Q224 430 188 372T153 233V0H94V354Q94 432 89 468H145Q150 426 150 367H152Q170 421 208 451T289 482ZM110 -45H167L99 -232H53Z" horiz-adv-x="342" unicode="ŗ"/>
			<glyph d="M97 708H292Q395 708 461 665T528 521Q528 441 479 389T363 322L563 0H492L304 312H158V0H97ZM157 658V361H289Q369 361 418 404T468 521Q468 594 416 626T281 658ZM149 905H201L288 788L375 905H427L319 761H257Z" horiz-adv-x="608" unicode="Ř"/>
			<glyph d="M289 482Q315 482 339 474L327 423Q306 430 285 430Q224 430 188 372T153 233V0H94V354Q94 432 89 468H145Q150 426 150 367H152Q170 421 208 451T289 482ZM66 709H118L205 592L292 709H344L236 565H174Z" horiz-adv-x="342" unicode="ř"/>
			<glyph d="M303 727Q356 727 407 710T495 668L477 613Q446 638 398 656T303 675Q261 675 222 659T159 612T135 535Q135 491 157 462T212 417T301 382Q369 359 410 338T480 280T509 182Q509 118 477 72T394 4T282 -19Q222 -19 162 2T65 55L78 113Q117 77 171 55T280 34Q349 34 398 72T447 177Q447 221 424 249T368 294T274 332Q211 354 170 375T102 435T75 533Q75 595 107 639T191 705T303 727ZM353 908H420L298 764H250Z" horiz-adv-x="572" unicode="Ś"/>
			<glyph d="M219 483Q263 483 302 468T368 433L343 390Q319 410 287 423T221 436Q177 436 148 416T119 357Q119 322 145 302T238 261Q312 237 347 206T382 123Q382 80 359 49T300 2T223 -13Q172 -13 127 1T55 39L65 90Q130 33 221 33Q264 33 295 56T326 121Q326 156 295 178T197 222Q130 244 97 272T64 354Q64 395 86 424T144 468T219 483ZM279 709H347L225 565H177Z" horiz-adv-x="432" unicode="ś"/>
			<glyph d="M303 727Q356 727 407 710T495 668L477 613Q446 638 398 656T303 675Q261 675 222 659T159 612T135 535Q135 491 157 462T212 417T301 382Q369 359 410 338T480 280T509 182Q509 118 477 72T394 4T282 -19Q222 -19 162 2T65 55L78 113Q117 77 171 55T280 34Q349 34 398 72T447 177Q447 221 424 249T368 294T274 332Q211 354 170 375T102 435T75 533Q75 595 107 639T191 705T303 727ZM272 908H334L442 764H390L303 881L216 764H164Z" horiz-adv-x="572" unicode="Ŝ"/>
			<glyph d="M219 483Q263 483 302 468T368 433L343 390Q319 410 287 423T221 436Q177 436 148 416T119 357Q119 322 145 302T238 261Q312 237 347 206T382 123Q382 80 359 49T300 2T223 -13Q172 -13 127 1T55 39L65 90Q130 33 221 33Q264 33 295 56T326 121Q326 156 295 178T197 222Q130 244 97 272T64 354Q64 395 86 424T144 468T219 483ZM190 709H252L360 565H308L221 683L134 565H82Z" horiz-adv-x="432" unicode="ŝ"/>
			<glyph d="M303 727Q356 727 407 710T495 668L477 613Q446 638 398 656T303 675Q261 675 222 659T159 612T135 535Q135 491 157 462T212 417T301 382Q369 359 410 338T480 280T509 182Q509 122 481 78T406 10T304 -18L262 -79Q285 -73 305 -73Q341 -73 367 -90T393 -144Q393 -190 356 -209T274 -229Q252 -229 225 -223T178 -208L189 -179Q207 -187 229 -191T271 -196Q301 -196 324 -184T348 -144Q348 -121 329 -110T285 -100Q272 -100 255 -103T228 -112L212 -98L266 -18Q210 -16 154 4T65 55L78 113Q117 77 171 55T280 34Q349 34 398 72T447 177Q447 221 424 249T368 294T274 332Q211 354 170 375T102 435T75 533Q75 595 107 639T191 705T303 727Z" horiz-adv-x="572" unicode="Ş"/>
			<glyph d="M219 483Q263 483 302 468T368 433L343 390Q319 410 287 423T221 436Q177 436 148 416T119 357Q119 322 145 302T238 261Q312 237 347 206T382 123Q382 62 338 26T235 -12L189 -79Q212 -73 232 -73Q268 -73 294 -90T320 -144Q320 -190 283 -209T201 -229Q179 -229 152 -223T105 -208L116 -179Q134 -187 156 -191T198 -196Q228 -196 251 -184T275 -144Q275 -121 256 -110T212 -100Q199 -100 182 -103T155 -112L139 -98L198 -12Q155 -8 117 5T55 39L65 90Q130 33 221 33Q264 33 295 56T326 121Q326 156 295 178T197 222Q130 244 97 272T64 354Q64 395 86 424T144 468T219 483Z" horiz-adv-x="432" unicode="ş"/>
			<glyph d="M303 727Q356 727 407 710T495 668L477 613Q446 638 398 656T303 675Q261 675 222 659T159 612T135 535Q135 491 157 462T212 417T301 382Q369 359 410 338T480 280T509 182Q509 118 477 72T394 4T282 -19Q222 -19 162 2T65 55L78 113Q117 77 171 55T280 34Q349 34 398 72T447 177Q447 221 424 249T368 294T274 332Q211 354 170 375T102 435T75 533Q75 595 107 639T191 705T303 727ZM161 908H213L300 791L387 908H439L331 764H269Z" horiz-adv-x="572" unicode="Š"/>
			<glyph d="M219 483Q263 483 302 468T368 433L343 390Q319 410 287 423T221 436Q177 436 148 416T119 357Q119 322 145 302T238 261Q312 237 347 206T382 123Q382 80 359 49T300 2T223 -13Q172 -13 127 1T55 39L65 90Q130 33 221 33Q264 33 295 56T326 121Q326 156 295 178T197 222Q130 244 97 272T64 354Q64 395 86 424T144 468T219 483ZM82 709H134L221 592L308 709H360L252 565H190Z" horiz-adv-x="432" unicode="š"/>
			<glyph d="M16 708H517L506 654H291V0H231V654H4ZM245 -45H302L234 -232H188Z" horiz-adv-x="522" unicode="Ţ"/>
			<glyph d="M151 603V468H284L272 422H151V121Q151 78 169 58T219 38Q252 38 294 59L302 15Q281 4 255 -3T202 -10Q152 -10 122 22T93 113V422H5L17 468H92V580ZM179 -45H236L168 -232H122Z" horiz-adv-x="315" unicode="ţ"/>
			<glyph d="M16 708H517L506 654H291V0H231V654H4ZM139 908H191L278 791L365 908H417L309 764H247Z" horiz-adv-x="522" unicode="Ť"/>
			<glyph d="M151 603V468H284L272 422H151V121Q151 78 169 58T219 38Q252 38 294 59L302 15Q281 4 255 -3T202 -10Q152 -10 122 22T93 113V422H5L17 468H92V580ZM292 731H349L281 544H235Z" horiz-adv-x="338" unicode="ť"/>
			<glyph d="M16 708H517L506 654H291V532H454V494H291V0H231V494H66V532H231V654H4Z" horiz-adv-x="522" unicode="Ŧ"/>
			<glyph d="M158 603V468H291L279 422H158V291H169L276 275L259 253H158V121Q158 78 176 58T226 38Q259 38 301 59L309 15Q288 4 262 -3T209 -10Q159 -10 129 22T100 113V255L31 268L69 291H100V422H12L24 468H99V580Z" horiz-adv-x="322" unicode="ŧ"/>
			<glyph d="M89 708H150V274Q150 175 197 105T364 35Q482 35 530 105T578 274V708H638V267Q638 142 571 61T364 -19Q223 -19 156 61T89 267ZM473 874H506Q501 833 482 809T431 786Q415 786 400 791T362 810Q340 823 326 828T300 833Q267 833 257 784H225Q230 825 249 849T300 873Q316 873 331 867T369 850Q392 837 405 832T431 827Q465 827 473 874Z" horiz-adv-x="727" unicode="Ũ"/>
			<glyph d="M86 468H145V198Q145 128 173 81T272 35Q316 35 351 58T407 127T428 235V468H486V109Q486 87 488 54T495 0L437 -1Q434 23 428 101Q408 49 360 18T257 -13Q169 -13 127 43T86 183ZM396 676H429Q424 635 405 611T354 588Q337 588 322 593T285 611Q263 624 249 629T223 634Q190 634 180 585H148Q153 626 172 650T223 675Q240 675 255 669T292 651Q316 638 329 633T354 628Q388 628 396 676Z" horiz-adv-x="582" unicode="ũ"/>
			<glyph d="M89 708H150V274Q150 175 197 105T364 35Q482 35 530 105T578 274V708H638V267Q638 142 571 61T364 -19Q223 -19 156 61T89 267ZM236 851H496V811H236Z" horiz-adv-x="727" unicode="Ū"/>
			<glyph d="M86 468H145V198Q145 128 173 81T272 35Q316 35 351 58T407 127T428 235V468H486V109Q486 87 488 54T495 0L437 -1Q434 23 428 101Q408 49 360 18T257 -13Q169 -13 127 43T86 183ZM155 652H415V613H155Z" horiz-adv-x="582" unicode="ū"/>
			<glyph d="M89 708H150V274Q150 175 197 105T364 35Q482 35 530 105T578 274V708H638V267Q638 142 571 61T364 -19Q223 -19 156 61T89 267ZM225 902H261Q269 858 296 835T363 813Q449 813 467 902H504Q496 839 458 805T363 771Q306 771 268 805T225 902Z" horiz-adv-x="727" unicode="Ŭ"/>
			<glyph d="M86 468H145V198Q145 128 173 81T272 35Q316 35 351 58T407 127T428 235V468H486V109Q486 87 488 54T495 0L437 -1Q434 23 428 101Q408 49 360 18T257 -13Q169 -13 127 43T86 183ZM146 704H182Q190 660 217 637T284 614Q370 614 388 704H425Q417 641 379 607T284 573Q227 573 189 607T146 704Z" horiz-adv-x="582" unicode="ŭ"/>
			<glyph d="M89 708H150V274Q150 175 197 105T364 35Q482 35 530 105T578 274V708H638V267Q638 142 571 61T364 -19Q223 -19 156 61T89 267ZM366 948Q407 948 435 920T464 851Q464 810 435 782T366 754Q326 754 297 782T268 851Q268 892 297 920T366 948ZM366 921Q337 921 316 900T296 851Q296 822 316 801T366 781Q395 781 415 801T436 851Q436 880 415 900T366 921Z" horiz-adv-x="727" unicode="Ů"/>
			<glyph d="M86 468H145V198Q145 128 173 81T272 35Q316 35 351 58T407 127T428 235V468H486V109Q486 87 488 54T495 0L437 -1Q434 23 428 101Q408 49 360 18T257 -13Q169 -13 127 43T86 183ZM286 750Q327 750 355 722T384 652Q384 611 355 583T286 555Q246 555 217 583T188 652Q188 693 217 721T286 750ZM286 722Q257 722 236 701T216 652Q216 623 236 603T286 583Q315 583 335 603T356 652Q356 681 335 701T286 722Z" horiz-adv-x="582" unicode="ů"/>
			<glyph d="M89 708H150V274Q150 175 197 105T364 35Q482 35 530 105T578 274V708H638V267Q638 142 571 61T364 -19Q223 -19 156 61T89 267ZM403 908H471L348 763H300ZM475 908H542L420 763H372Z" horiz-adv-x="727" unicode="Ű"/>
			<glyph d="M86 468H145V198Q145 128 173 81T272 35Q316 35 351 58T407 127T428 235V468H486V109Q486 87 488 54T495 0L437 -1Q434 23 428 101Q408 49 360 18T257 -13Q169 -13 127 43T86 183ZM307 709H375L252 565H204ZM379 709H446L324 565H276Z" horiz-adv-x="582" unicode="ű"/>
			<glyph d="M89 708H150V274Q150 175 197 105T364 35Q482 35 530 105T578 274V708H638V267Q638 154 582 76T411 -16Q374 -53 357 -79T340 -132Q340 -157 355 -172T396 -187Q413 -187 429 -180T458 -161L474 -191Q457 -207 433 -216T385 -225Q347 -225 320 -202T294 -142Q294 -85 366 -19H364Q223 -19 156 61T89 267Z" horiz-adv-x="727" unicode="Ų"/>
			<glyph d="M86 468H145V198Q145 128 173 81T272 35Q316 35 351 58T407 127T428 235V468H486V109Q486 87 488 54T495 0H486Q439 -45 418 -74T398 -132Q398 -156 414 -171T454 -187Q471 -187 487 -180T516 -161L532 -191Q515 -207 491 -216T443 -225Q405 -225 378 -202T352 -142Q352 -106 377 -72T444 -1H437Q434 23 428 101Q408 49 360 18T257 -13Q169 -13 127 43T86 183Z" horiz-adv-x="582" unicode="ų"/>
			<glyph d="M20 708H84L265 78H268L449 708H521L706 78H708L889 708H952L743 0H673L486 631H484L299 0H229ZM454 908H516L624 764H572L485 881L398 764H346Z" horiz-adv-x="972" unicode="Ŵ"/>
			<glyph d="M26 468H89L204 67H207L338 468H402L535 67H537L653 468H714L569 0H505L370 399H368L235 0H170ZM339 709H401L509 565H457L370 683L283 565H231Z" horiz-adv-x="741" unicode="ŵ"/>
			<glyph d="M5 708H79L290 360L501 708H572L319 307V0H258V307ZM259 908H321L429 764H377L290 881L203 764H151Z" horiz-adv-x="577" unicode="Ŷ"/>
			<glyph d="M18 468H83L245 62L387 468H450L232 -118Q209 -181 168 -209T63 -240L47 -188Q100 -186 130 -167T179 -102L215 -4ZM209 709H271L379 565H327L240 683L153 565H101Z" horiz-adv-x="468" unicode="ŷ"/>
			<glyph d="M5 708H79L290 360L501 708H572L319 307V0H258V307ZM204 895Q221 895 233 883T245 854Q245 836 233 824T204 813Q187 813 175 825T163 854Q163 871 175 883T204 895ZM379 895Q396 895 408 883T420 854Q420 836 408 824T379 813Q362 813 350 825T338 854Q338 871 350 883T379 895Z" horiz-adv-x="577" unicode="Ÿ"/>
			<glyph d="M67 708H537V652L115 54H569L557 0H46V56L468 655H67ZM366 908H433L311 764H263Z" horiz-adv-x="595" unicode="Ź"/>
			<glyph d="M58 468H398V422L111 48H417L407 0H41V46L329 422H46ZM277 709H345L223 565H175Z" horiz-adv-x="452" unicode="ź"/>
			<glyph d="M67 708H537V652L115 54H569L557 0H46V56L468 655H67ZM304 896Q321 896 333 884T346 855Q346 837 333 825T304 813Q287 813 275 825T263 855Q263 872 275 884T304 896Z" horiz-adv-x="595" unicode="Ż"/>
			<glyph d="M58 468H398V422L111 48H417L407 0H41V46L329 422H46ZM229 698Q246 698 258 685T271 656Q271 638 258 626T229 614Q212 614 200 626T188 656Q188 673 200 685T229 698Z" horiz-adv-x="452" unicode="ż"/>
			<glyph d="M67 708H537V652L115 54H569L557 0H46V56L468 655H67ZM162 908H214L301 791L388 908H440L332 764H270Z" horiz-adv-x="595" unicode="Ž"/>
			<glyph d="M58 468H398V422L111 48H417L407 0H41V46L329 422H46ZM88 709H140L227 592L314 709H366L258 565H196Z" horiz-adv-x="452" unicode="ž"/>
			<glyph d="M433 721Q485 721 518 696L493 653Q466 670 438 670Q361 670 342 562L315 415H442L430 372H307L237 0Q225 -67 192 -104T94 -141Q49 -141 20 -125L43 -79Q66 -92 93 -92Q136 -92 155 -62T186 24L249 372H137L148 415H257L284 564Q297 636 330 678T433 721Z" horiz-adv-x="580" unicode="ƒ"/>
			<glyph d="M465 708H885L873 655H561V392H852L841 341H561V54H901L889 0H502V259H250L84 0H13ZM497 655L278 310H502V655ZM683 908H750L628 764H580Z" horiz-adv-x="955" unicode="Ǽ"/>
			<glyph d="M262 483Q328 483 369 451T423 368Q449 421 496 452T604 483Q667 483 715 453T789 371T816 250L815 225H440Q441 176 460 132T519 62T614 35Q660 35 703 51T779 91L788 42Q755 18 709 2T609 -14Q542 -14 491 21T416 119Q400 59 350 23T224 -13Q156 -13 107 20T58 121Q58 268 334 268H386V300Q386 367 352 401T257 436Q175 436 106 376L87 422Q119 451 166 467T262 483ZM604 437Q553 437 516 410T460 343T440 268H759Q757 343 715 390T604 437ZM344 225Q239 225 177 204T115 122Q115 74 150 52T233 31Q311 31 349 76T387 189V225ZM507 709H575L453 565H405Z" horiz-adv-x="872" unicode="ǽ"/>
			<glyph d="M728 734L757 707L685 625Q737 576 765 506T793 354Q793 247 745 162T612 29T424 -19Q354 -19 293 2T185 63L112 -18L83 8L156 90Q108 138 81 206T55 354Q55 462 102 547T234 679T424 727Q489 727 548 707T655 651ZM424 674Q334 674 264 631T155 515T117 354Q117 291 138 234T197 135L616 609Q578 640 529 657T424 674ZM644 580L225 106Q307 34 424 34Q515 34 584 77T692 193T730 354Q730 421 708 479T644 580ZM482 908H549L427 764H379Z" horiz-adv-x="863" unicode="Ǿ"/>
			<glyph d="M530 491L557 465L493 402Q523 371 539 328T555 235Q555 163 523 106T434 18T305 -14Q256 -14 213 2T140 47L72 -22L45 4L113 72Q86 104 71 145T56 235Q56 306 88 363T177 451T305 483Q397 483 467 428ZM305 435Q247 435 203 408T137 336T114 236Q114 200 123 167T152 111L430 391Q379 435 305 435ZM454 364L176 84Q199 60 232 47T305 35Q363 35 406 61T473 134T497 235Q497 272 486 305T454 364ZM365 709H433L311 565H263Z" horiz-adv-x="611" unicode="ǿ"/>
			<glyph d="M303 727Q356 727 407 710T495 668L477 613Q446 638 398 656T303 675Q261 675 222 659T159 612T135 535Q135 491 157 462T212 417T301 382Q369 359 410 338T480 280T509 182Q509 118 477 72T394 4T282 -19Q222 -19 162 2T65 55L78 113Q117 77 171 55T280 34Q349 34 398 72T447 177Q447 221 424 249T368 294T274 332Q211 354 170 375T102 435T75 533Q75 595 107 639T191 705T303 727ZM272 -45H329L261 -232H215Z" horiz-adv-x="572" unicode="Ș"/>
			<glyph d="M219 483Q263 483 302 468T368 433L343 390Q319 410 287 423T221 436Q177 436 148 416T119 357Q119 322 145 302T238 261Q312 237 347 206T382 123Q382 80 359 49T300 2T223 -13Q172 -13 127 1T55 39L65 90Q130 33 221 33Q264 33 295 56T326 121Q326 156 295 178T197 222Q130 244 97 272T64 354Q64 395 86 424T144 468T219 483ZM197 -45H254L186 -232H140Z" horiz-adv-x="432" unicode="ș"/>
			<glyph d="M16 708H517L506 654H291V0H231V654H4ZM242 -45H299L231 -232H185Z" horiz-adv-x="522" unicode="Ț"/>
			<glyph d="M151 603V468H284L272 422H151V121Q151 78 169 58T219 38Q252 38 294 59L302 15Q281 4 255 -3T202 -10Q152 -10 122 22T93 113V422H5L17 468H92V580ZM179 -45H236L168 -232H122Z" horiz-adv-x="322" unicode="ț"/>
			<glyph d="M94 468H152V-82Q152 -160 123 -200T20 -241Q-5 -241 -23 -235L-16 -187Q4 -191 15 -191Q64 -191 79 -162T94 -80Z" horiz-adv-x="245" unicode="ȷ"/>
			<glyph d="M94 709H156L264 565H212L125 683L38 565H-14Z" horiz-adv-x="250" unicode="ˆ"/>
			<glyph d="M-14 709H38L125 592L212 709H264L156 565H94Z" horiz-adv-x="250" unicode="ˇ"/>
			<glyph d="M-5 851H255V812H-5Z" horiz-adv-x="250" unicode="ˉ"/>
			<glyph d="M-14 704H22Q30 660 57 637T124 614Q210 614 228 704H265Q257 641 219 607T124 573Q67 573 29 607T-14 704Z" horiz-adv-x="250" unicode="˘"/>
			<glyph d="M125 698Q142 698 154 685T167 656Q167 638 154 626T125 614Q108 614 96 626T84 656Q84 673 96 685T125 698Z" horiz-adv-x="250" unicode="˙"/>
			<glyph d="M125 750Q166 750 194 722T223 652Q223 611 194 583T125 555Q85 555 56 583T27 652Q27 693 56 721T125 750ZM125 722Q96 722 75 701T55 652Q55 623 75 603T125 583Q154 583 174 603T195 652Q195 681 174 701T125 722Z" horiz-adv-x="250" unicode="˚"/>
			<glyph d="M127 1H168Q120 -45 99 -74T79 -132Q79 -157 94 -172T135 -187Q152 -187 168 -180T196 -161L213 -191Q196 -207 172 -216T123 -225Q85 -225 59 -202T33 -142Q33 -105 58 -71T127 1Z" horiz-adv-x="250" unicode="˛"/>
			<glyph d="M233 676H266Q261 635 242 611T191 588Q174 588 159 593T122 611Q100 624 86 629T60 634Q27 634 17 585H-15Q-10 626 9 650T60 675Q77 675 92 669T129 651Q153 638 166 633T191 628Q225 628 233 676Z" horiz-adv-x="250" unicode="˜"/>
			<glyph d="M143 709H211L88 565H40ZM215 709H282L160 565H112Z" horiz-adv-x="250" unicode="˝"/>
			<glyph d="M-134 -45H-77L-145 -232H-191Z" horiz-adv-x="0" unicode="̦"/>
			<glyph d="M132 730H199L121 544H78Z" horiz-adv-x="219" unicode="ʹ"/>
			<glyph d="M157 21H199L146 -165H78Z" horiz-adv-x="219" unicode="͵"/>
			<glyph d="M265 713H325L583 29V0H6V30ZM294 657Q273 594 258 553L70 49H519L333 548Q318 588 294 657Z" horiz-adv-x="625" unicode="Δ"/>
			<glyph d="M386 723Q483 723 556 683T670 569T711 390Q711 268 661 186T517 50H736V0H455V52Q553 110 600 188T648 386Q648 475 614 540T522 638T386 672Q311 672 252 637T160 537T127 386Q127 265 175 189T318 52V0H38V50H257Q165 105 114 187T63 390Q63 488 104 563T218 681T386 723Z" horiz-adv-x="747" unicode="Ω"/>
			<glyph d="M86 468H143V195Q143 121 181 82T290 43Q376 43 414 93T452 240V468H509V0H462L455 91H452Q408 -10 289 -10Q235 -10 198 9T144 64H142L143 -30V-240H86Z" horiz-adv-x="596" unicode="μ"/>
			<glyph d="M100 468H593V422H480V115Q480 36 541 36Q569 36 588 44V1Q562 -10 525 -10Q476 -10 449 20T422 106V422H181V0H122V422H12V457Z" horiz-adv-x="621" unicode="π"/>
			<glyph d="M20 708H84L265 78H268L449 708H521L706 78H708L889 708H952L743 0H673L486 631H484L299 0H229ZM343 908H411L513 764H465Z" horiz-adv-x="972" unicode="Ẁ"/>
			<glyph d="M26 468H89L204 67H207L338 468H402L535 67H537L653 468H714L569 0H505L370 399H368L235 0H170ZM223 709H291L393 565H345Z" horiz-adv-x="741" unicode="ẁ"/>
			<glyph d="M20 708H84L265 78H268L449 708H521L706 78H708L889 708H952L743 0H673L486 631H484L299 0H229ZM560 908H627L505 764H457Z" horiz-adv-x="972" unicode="Ẃ"/>
			<glyph d="M26 468H89L204 67H207L338 468H402L535 67H537L653 468H714L569 0H505L370 399H368L235 0H170ZM449 709H517L395 565H347Z" horiz-adv-x="741" unicode="ẃ"/>
			<glyph d="M20 708H84L265 78H268L449 708H521L706 78H708L889 708H952L743 0H673L486 631H484L299 0H229ZM398 895Q415 895 427 883T439 854Q439 836 427 824T398 813Q381 813 369 825T357 854Q357 871 369 883T398 895ZM573 895Q590 895 602 883T614 854Q614 836 602 824T573 813Q556 813 544 825T532 854Q532 871 544 883T573 895Z" horiz-adv-x="972" unicode="Ẅ"/>
			<glyph d="M26 468H89L204 67H207L338 468H402L535 67H537L653 468H714L569 0H505L370 399H368L235 0H170ZM282 697Q299 697 311 685T323 656Q323 638 311 626T282 614Q265 614 253 626T241 656Q241 673 253 685T282 697ZM457 697Q474 697 486 685T498 656Q498 638 486 626T457 614Q440 614 428 626T416 656Q416 673 428 685T457 697Z" horiz-adv-x="741" unicode="ẅ"/>
			<glyph d="M5 708H79L290 360L501 708H572L319 307V0H258V307ZM155 908H223L325 764H277Z" horiz-adv-x="577" unicode="Ỳ"/>
			<glyph d="M18 468H83L245 62L387 468H450L232 -118Q209 -181 168 -209T63 -240L47 -188Q100 -186 130 -167T179 -102L215 -4ZM102 709H170L272 565H224Z" horiz-adv-x="468" unicode="ỳ"/>
			<glyph d="M53 277H257V228H53Z" horiz-adv-x="309" unicode="‐"/>
			<glyph d="M30 274H370V231H30Z" horiz-adv-x="400" unicode="–"/>
			<glyph d="M30 274H570V230H30Z" horiz-adv-x="600" unicode="—"/>
			<glyph d="M30 274H570V230H30Z" horiz-adv-x="600" unicode="―"/>
			<glyph d="M151 708L173 693Q149 669 130 637T106 572Q124 571 136 558T149 527Q149 508 136 495T104 482Q85 482 72 497T60 537Q60 625 151 708Z" horiz-adv-x="256" unicode="‘"/>
			<glyph d="M129 708Q148 708 160 693T173 652Q173 566 83 482L60 497Q84 521 103 552T127 618Q109 619 97 631T85 663Q85 682 97 695T129 708Z" horiz-adv-x="256" unicode="’"/>
			<glyph d="M128 108Q147 108 160 93T173 52Q173 -33 82 -118L59 -103Q83 -79 102 -47T126 18Q109 19 96 31T84 63Q84 82 96 95T128 108Z" horiz-adv-x="255" unicode="‚"/>
			<glyph d="M150 708L173 693Q149 670 129 638T105 572Q123 571 135 558T148 527Q148 508 135 495T103 482Q84 482 71 497T59 537Q59 625 150 708ZM317 708L340 693Q317 670 297 638T273 572Q290 571 302 558T315 527Q315 508 302 495T271 482Q252 482 239 497T226 537Q226 625 317 708Z" horiz-adv-x="423" unicode="“"/>
			<glyph d="M129 708Q148 708 160 693T173 652Q173 566 83 482L60 497Q84 521 103 552T127 618Q109 619 97 631T85 663Q85 682 97 695T129 708ZM296 708Q315 708 328 693T341 652Q341 565 250 482L227 497Q250 519 270 551T295 618Q277 619 264 631T252 663Q252 682 265 695T296 708Z" horiz-adv-x="424" unicode="”"/>
			<glyph d="M128 108Q147 108 160 93T173 53Q173 -33 82 -118L59 -103Q82 -80 101 -48T126 18Q109 19 96 31T84 63Q84 82 96 95T128 108ZM295 108Q315 108 327 93T340 53Q340 -35 249 -118L226 -103Q250 -80 269 -48T294 18Q276 19 263 31T251 63Q251 82 264 95T295 108Z" horiz-adv-x="423" unicode="„"/>
			<glyph d="M245 708H299V503H496V455H299V-127H245V455H48V503H245Z" horiz-adv-x="544" unicode="†"/>
			<glyph d="M245 708H299V510H493V461H299V120H493V71H299V-127H245V71H51V120H245V461H51V510H245Z" horiz-adv-x="544" unicode="‡"/>
			<glyph d="M250 531Q298 531 338 507T403 442T427 354Q427 306 403 265T338 201T250 177Q202 177 161 201T97 265T73 354Q73 402 97 442T161 507T250 531Z" horiz-adv-x="500" unicode="•"/>
			<glyph d="M166 84Q184 84 197 71T211 39Q211 20 197 6T166 -7Q148 -7 134 6T121 39Q121 57 134 70T166 84ZM501 84Q519 84 532 71T545 39Q545 20 532 6T501 -7Q482 -7 469 6T456 39Q456 57 469 70T501 84ZM834 84Q853 84 866 71T879 39Q879 20 865 6T834 -7Q816 -7 803 6T790 39Q790 57 803 70T834 84Z" horiz-adv-x="1000" unicode="…"/>
			<glyph d="M535 738L573 717L140 -28L102 -8ZM190 718Q231 718 266 697T323 641T344 563Q344 521 323 486T266 430T190 410Q148 410 112 430T56 486T36 563Q36 606 56 641T112 697T190 718ZM190 675Q145 675 113 643T82 563Q82 517 113 485T190 453Q236 453 267 485T299 563Q299 611 267 643T190 675ZM502 300Q544 300 579 279T636 223T657 146Q657 104 636 68T579 12T502 -8Q461 -8 426 12T370 68T350 146Q350 188 370 223T426 279T502 300ZM857 300Q898 300 933 279T989 223T1010 146Q1010 104 989 68T933 12T857 -8Q815 -8 779 12T723 68T703 146Q703 188 723 223T779 279T857 300ZM502 258Q457 258 426 225T395 146Q395 99 426 67T502 35Q548 35 580 67T612 146Q612 193 580 225T502 258ZM857 258Q811 258 780 225T749 146Q749 99 780 67T857 35Q903 35 934 67T965 146Q965 193 934 225T857 258Z" horiz-adv-x="1043" unicode="‰"/>
			<glyph d="M199 446L238 421L123 241L239 61L200 34L66 241Z" horiz-adv-x="316" unicode="‹"/>
			<glyph d="M115 447L249 241L116 35L78 61L192 241L77 421Z" horiz-adv-x="316" unicode="›"/>
			<glyph d="M241 725Q294 725 338 705T408 646T434 553Q434 514 421 484T390 432T337 377Q305 346 289 324T268 280T263 224V203H206V544H257L256 369L283 397Q318 432 334 451T362 495T373 552Q373 607 334 639T236 672Q183 672 139 649T68 593L39 640Q73 677 123 701T241 725ZM238 83Q256 83 268 70T281 38Q281 20 268 6T238 -7Q220 -7 207 6T194 38Q194 57 206 70T238 83Z" horiz-adv-x="487" unicode="‽"/>
			<glyph d="M237 738L274 717L-159 -28L-196 -8Z" horiz-adv-x="100" unicode="⁄"/>
			<glyph d="M184 884Q261 884 293 820T326 663Q326 570 293 506T184 442Q106 442 74 506T42 663Q42 756 74 820T184 884ZM184 843Q129 843 109 787T89 663Q89 594 109 538T184 483Q238 483 258 538T278 663Q278 732 258 787T184 843Z" unicode="⁰"/>
			<glyph d="M212 874H270V592H335L324 552H270V452H226V552H32V594ZM223 819L79 592H226V819Z" unicode="⁴"/>
			<glyph d="M83 874H301L291 833H124L121 709Q152 720 180 720Q242 720 280 682T319 584Q319 518 278 480T178 442Q88 442 44 491L56 535Q100 483 176 483Q216 483 244 509T272 582Q272 627 244 654T169 682Q126 682 78 657Z" unicode="⁵"/>
			<glyph d="M228 874Q272 874 298 860L288 824Q256 837 228 837Q166 837 130 787T90 649H92Q109 674 135 688T193 702Q248 702 285 665T322 573Q322 514 285 478T189 442Q125 442 84 488T44 622Q44 741 92 807T228 874ZM188 666Q146 666 119 642T92 582Q92 543 118 511T188 480Q229 480 252 506T276 573Q276 613 251 639T188 666Z" unicode="⁶"/>
			<glyph d="M62 874H314V837L145 452H92L264 833H51Z" unicode="⁷"/>
			<glyph d="M184 884Q236 884 271 853T306 773Q306 742 290 716T244 677V676Q280 663 300 633T321 567Q321 510 282 476T184 442Q125 442 86 476T47 567Q47 604 67 633T124 676V677Q94 691 77 716T61 772Q61 822 96 853T184 884ZM184 845Q151 845 129 824T107 771Q107 739 129 717T184 695Q217 695 239 717T261 771Q261 803 239 824T184 845ZM184 657Q146 657 119 631T93 569Q93 531 118 506T184 482Q224 482 249 506T275 569Q275 606 248 631T184 657Z" unicode="⁸"/>
			<glyph d="M177 874Q241 874 281 827T322 694Q322 575 274 508T138 442Q94 442 68 456L78 492Q111 479 138 479Q200 479 236 528T276 667H274Q257 642 231 628T173 615Q118 615 81 651T44 743Q44 802 80 838T177 874ZM178 836Q137 836 113 810T90 743Q90 703 115 676T178 650Q220 650 247 674T274 734Q274 773 247 804T178 836Z" unicode="⁹"/>
			<glyph d="M170 652H198V520H329V492H199V360H170V492H39V520H170Z" unicode="⁺"/>
			<glyph d="M40 520H327V492H40Z" unicode="⁻"/>
			<glyph d="M40 571H327V543H40ZM40 472H327V445H40Z" horiz-adv-x="368" unicode="⁼"/>
			<glyph d="M151 833L188 810Q144 748 117 663T91 497Q91 417 117 332T188 186L151 162Q102 231 74 319T46 497Q46 587 74 675T151 833Z" horiz-adv-x="260" unicode="⁽"/>
			<glyph d="M91 848Q140 778 167 689T195 512Q195 423 167 334T91 177L53 200Q98 262 123 346T149 512Q149 593 123 678T53 824Z" horiz-adv-x="256" unicode="⁾"/>
			<glyph d="M184 294Q261 294 293 230T326 73Q326 -20 293 -84T184 -148Q106 -148 74 -84T42 73Q42 166 74 230T184 294ZM184 253Q129 253 109 197T89 73Q89 4 109 -51T184 -107Q238 -107 258 -51T278 73Q278 142 258 197T184 253Z" unicode="₀"/>
			<glyph d="M180 285H224V-138H176V230L83 162L65 204Z" unicode="₁"/>
			<glyph d="M176 294Q233 294 267 263T302 182Q302 144 283 112T223 37L94 -97H315L303 -138H38V-99L195 70Q227 105 240 129T253 177Q253 212 230 232T173 253Q115 253 67 197L46 235Q96 294 176 294Z" unicode="₂"/>
			<glyph d="M171 294Q227 294 260 265T293 184Q293 148 272 121T216 85Q258 77 282 47T306 -23Q306 -82 266 -115T170 -148Q129 -148 96 -135T44 -103L59 -62Q75 -80 106 -93T168 -107Q210 -107 234 -84T259 -22Q259 19 227 41T152 63H130V101H152Q196 101 221 124T246 183Q246 217 224 236T168 255Q140 255 113 242T71 213L53 248Q101 294 171 294Z" unicode="₃"/>
			<glyph d="M212 284H270V2H335L324 -38H270V-138H226V-38H32V4ZM223 229L79 2H226V229Z" unicode="₄"/>
			<glyph d="M83 284H301L291 243H124L121 119Q152 130 180 130Q242 130 280 92T319 -6Q319 -72 278 -110T178 -148Q88 -148 44 -99L56 -55Q100 -107 176 -107Q216 -107 244 -81T272 -8Q272 37 244 64T169 92Q126 92 78 67Z" unicode="₅"/>
			<glyph d="M228 284Q272 284 298 270L288 234Q256 247 228 247Q166 247 130 197T90 59H92Q109 84 135 98T193 112Q248 112 285 75T322 -17Q322 -76 285 -112T189 -148Q125 -148 84 -101T44 32Q44 151 92 217T228 284ZM188 76Q146 76 119 52T92 -8Q92 -47 118 -78T188 -110Q229 -110 252 -84T276 -17Q276 23 251 49T188 76Z" unicode="₆"/>
			<glyph d="M62 284H314V247L145 -138H92L264 243H51Z" unicode="₇"/>
			<glyph d="M184 294Q236 294 271 263T306 183Q306 152 290 126T244 87V86Q280 73 300 43T321 -23Q321 -80 282 -114T184 -148Q125 -148 86 -114T47 -23Q47 14 67 43T124 86V87Q94 101 77 126T61 182Q61 232 96 263T184 294ZM184 255Q151 255 129 234T107 181Q107 149 129 127T184 105Q217 105 239 127T261 181Q261 213 239 234T184 255ZM184 67Q146 67 119 41T93 -21Q93 -59 118 -83T184 -108Q224 -108 249 -83T275 -21Q275 16 248 41T184 67Z" unicode="₈"/>
			<glyph d="M177 284Q241 284 281 237T322 104Q322 -15 274 -81T138 -148Q94 -148 68 -134L78 -98Q111 -111 138 -111Q200 -111 236 -61T276 77H274Q257 52 231 38T173 25Q118 25 81 61T44 153Q44 212 80 248T177 284ZM178 246Q137 246 113 220T90 153Q90 113 115 86T178 60Q220 60 247 84T274 144Q274 183 247 214T178 246Z" unicode="₉"/>
			<glyph d="M170 367H198V235H329V207H199V75H170V207H39V235H170Z" unicode="₊"/>
			<glyph d="M40 235H327V207H40Z" unicode="₋"/>
			<glyph d="M41 285H328V257H41ZM41 186H328V159H41Z" horiz-adv-x="368" unicode="₌"/>
			<glyph d="M151 540L188 517Q144 455 117 370T91 204Q91 124 117 39T188 -107L151 -131Q102 -62 74 26T46 204Q46 294 74 382T151 540Z" horiz-adv-x="260" unicode="₍"/>
			<glyph d="M91 557Q140 487 167 398T195 221Q195 132 167 43T91 -114L53 -91Q98 -29 123 55T149 221Q149 302 123 387T53 533Z" horiz-adv-x="256" unicode="₎"/>
			<glyph d="M391 727Q432 727 471 718T539 695L519 646Q463 677 388 677Q302 677 239 619T155 459H471L457 416H147Q142 386 142 349Q142 316 145 292H420L406 249H151Q162 184 195 135T277 59T385 32Q471 32 527 74L547 27Q484 -19 377 -19Q300 -19 240 16T142 113T92 249H19L34 292H86Q83 315 83 349Q83 392 87 416H21L35 459H94Q121 587 200 657T391 727Z" horiz-adv-x="580" unicode="€"/>
			<glyph d="M612 738L650 716L212 -29L173 -8ZM207 722Q242 722 274 711T329 683L310 641Q291 658 264 668T207 678Q155 678 124 642T94 553Q94 501 126 465T212 429Q267 429 309 464L327 425Q305 406 275 395T210 385Q162 385 124 406T64 466T43 553Q43 627 89 674T207 722ZM621 324Q694 324 740 277T787 157Q787 82 740 35T621 -12Q548 -12 501 35T455 157Q455 230 501 277T621 324ZM621 281Q568 281 536 245T504 157Q504 104 536 67T621 31Q675 31 706 67T738 157Q738 210 706 245T621 281Z" horiz-adv-x="831" unicode="℅"/>
			<glyph d="M285 721Q331 721 359 688T387 597Q387 455 220 276V119Q220 70 243 49T297 29Q343 29 385 67H387L408 39Q354 -14 286 -14Q232 -14 199 17T166 111V238L107 173H105L83 203L165 287V550Q165 630 199 675T285 721ZM284 681Q257 681 238 650T220 558V327Q278 394 309 464T341 593Q341 632 324 656T284 681Z" horiz-adv-x="500" unicode="ℓ"/>
			<glyph d="M401 730Q504 730 591 679T729 542T780 353Q780 250 729 164T591 28T401 -22Q298 -22 210 28T71 164T20 353Q20 456 71 542T210 679T401 730ZM401 693Q308 693 229 647T105 524T59 353Q59 261 105 183T229 60T401 15Q493 15 571 60T695 183T741 353Q741 446 695 524T572 647T401 693ZM286 567H440Q509 567 552 533T596 433Q596 370 553 332T444 295H336V127H286ZM336 525V338H443Q490 338 518 363T546 433Q546 478 516 501T441 525Z" horiz-adv-x="800" unicode="℗"/>
			<glyph d="M87 708H397L387 667H261V296H213V667H77ZM487 708H558L699 367L839 708H910V296H864V652H862L713 296H682L535 652H533V296H487Z" horiz-adv-x="1000" unicode="™"/>
			<glyph d="M386 723Q483 723 556 683T670 569T711 390Q711 268 661 186T517 50H736V0H455V52Q553 110 600 188T648 386Q648 475 614 540T522 638T386 672Q311 672 252 637T160 537T127 386Q127 265 175 189T318 52V0H38V50H257Q165 105 114 187T63 390Q63 488 104 563T218 681T386 723Z" horiz-adv-x="747" unicode="Ω"/>
			<glyph d="M302 535Q378 535 436 500T528 402T561 259H157V78Q216 19 302 19Q365 19 411 47T495 139L530 118Q484 46 432 14T302 -17Q225 -17 166 19T76 119T44 259Q44 336 76 399T166 498T302 535ZM301 500Q217 500 157 440V295H448V440Q385 500 301 500Z" horiz-adv-x="587" unicode="℮"/>
			<glyph d="M604 738L642 717L208 -28L171 -8ZM176 708H220V284H172V653L79 585L61 627ZM627 432Q683 432 716 403T749 322Q749 286 728 259T672 223Q714 215 738 185T762 115Q762 56 722 23T626 -10Q585 -10 552 2T500 35L515 76Q531 58 562 44T624 31Q666 31 690 53T715 116Q715 157 683 179T608 201H586V239H608Q652 239 677 262T702 321Q702 355 680 374T624 393Q596 393 569 380T527 351L509 386Q557 432 627 432Z" horiz-adv-x="834" unicode="⅓"/>
			<glyph d="M604 738L642 717L208 -28L171 -8ZM176 717Q233 717 267 686T302 605Q302 567 283 535T223 460L94 326H315L303 285H38V324L195 493Q227 528 240 552T253 600Q253 635 230 655T173 676Q115 676 67 620L46 658Q96 717 176 717ZM627 432Q683 432 716 403T749 322Q749 286 728 259T672 223Q714 215 738 185T762 115Q762 56 722 23T626 -10Q585 -10 552 2T500 35L515 76Q531 58 562 44T624 31Q666 31 690 53T715 116Q715 157 683 179T608 201H586V239H608Q652 239 677 262T702 321Q702 355 680 374T624 393Q596 393 569 380T527 351L509 386Q557 432 627 432Z" horiz-adv-x="827" unicode="⅔"/>
			<glyph d="M604 738L642 717L208 -28L171 -8ZM176 708H220V284H172V653L79 585L61 627ZM637 432Q689 432 724 401T759 321Q759 290 743 264T697 225V224Q733 211 753 181T774 115Q774 58 735 24T637 -10Q578 -10 539 24T500 115Q500 152 520 181T577 224V225Q547 239 530 264T514 320Q514 370 549 401T637 432ZM637 393Q604 393 582 372T560 319Q560 287 582 265T637 243Q670 243 692 265T714 319Q714 351 692 372T637 393ZM637 205Q599 205 572 179T546 117Q546 79 571 54T637 30Q677 30 702 54T728 117Q728 154 701 179T637 205Z" horiz-adv-x="840" unicode="⅛"/>
			<glyph d="M597 738L635 717L201 -28L164 -8ZM171 718Q227 718 260 689T293 608Q293 572 272 545T216 509Q258 501 282 471T306 401Q306 342 266 309T170 276Q129 276 96 288T44 321L59 362Q75 344 106 330T168 317Q210 317 234 339T259 402Q259 443 227 465T152 487H130V525H152Q196 525 221 548T246 607Q246 641 224 660T168 679Q140 679 113 666T71 637L53 672Q101 718 171 718ZM626 432Q678 432 713 401T748 321Q748 290 732 264T686 225V224Q722 211 742 181T763 115Q763 58 724 24T626 -10Q567 -10 528 24T489 115Q489 152 509 181T566 224V225Q536 239 519 264T503 320Q503 370 538 401T626 432ZM626 393Q593 393 571 372T549 319Q549 287 571 265T626 243Q659 243 681 265T703 319Q703 351 681 372T626 393ZM626 205Q588 205 561 179T535 117Q535 79 560 54T626 30Q666 30 691 54T717 117Q717 154 690 179T626 205Z" horiz-adv-x="826" unicode="⅜"/>
			<glyph d="M597 738L635 717L201 -28L164 -8ZM80 708H298L288 667H121L118 543Q149 554 177 554Q239 554 277 516T316 418Q316 352 275 314T175 276Q85 276 41 325L53 369Q97 317 173 317Q213 317 241 343T269 416Q269 461 241 488T166 516Q123 516 75 491ZM626 432Q678 432 713 401T748 321Q748 290 732 264T686 225V224Q722 211 742 181T763 115Q763 58 724 24T626 -10Q567 -10 528 24T489 115Q489 152 509 181T566 224V225Q536 239 519 264T503 320Q503 370 538 401T626 432ZM626 393Q593 393 571 372T549 319Q549 287 571 265T626 243Q659 243 681 265T703 319Q703 351 681 372T626 393ZM626 205Q588 205 561 179T535 117Q535 79 560 54T626 30Q666 30 691 54T717 117Q717 154 690 179T626 205Z" horiz-adv-x="826" unicode="⅝"/>
			<glyph d="M559 738L596 717L163 -28L125 -8ZM62 708H314V671L145 286H92L264 667H51ZM624 432Q676 432 711 401T746 321Q746 290 730 264T684 225V224Q720 211 740 181T761 115Q761 58 722 24T624 -10Q565 -10 526 24T487 115Q487 152 507 181T564 224V225Q534 239 517 264T501 320Q501 370 536 401T624 432ZM624 393Q591 393 569 372T547 319Q547 287 569 265T624 243Q657 243 679 265T701 319Q701 351 679 372T624 393ZM624 205Q586 205 559 179T533 117Q533 79 558 54T624 30Q664 30 689 54T715 117Q715 154 688 179T624 205Z" horiz-adv-x="826" unicode="⅞"/>
			<glyph d="M221 723Q346 723 403 622T460 364Q460 180 402 82T238 -15Q181 -15 136 15T67 96T43 210Q43 275 67 323T135 398T235 424Q285 424 330 399T403 331Q405 375 405 396Q405 474 383 537T320 637T222 674Q189 674 162 663T107 629L78 667Q110 696 145 709T221 723ZM241 375Q175 375 138 326T101 209Q101 166 117 125T164 59T240 34Q319 34 356 109T399 280Q368 323 327 349T241 375Z" horiz-adv-x="513" unicode="∂"/>
			<glyph d="M265 713H325L583 29V0H6V30ZM294 657Q273 594 258 553L70 49H519L333 548Q318 588 294 657Z" horiz-adv-x="625" unicode="∆"/>
			<glyph d="M81 786H634V-214H578V736H137V-214H81Z" horiz-adv-x="714" unicode="∏"/>
			<glyph d="M50 786H561V736H120L432 290L106 -164H572V-214H37V-168L365 290L50 739Z" horiz-adv-x="608" unicode="∑"/>
			<glyph d="M89 329H577V282H89Z" horiz-adv-x="666" unicode="−"/>
			<glyph d="M237 738L274 717L-159 -28L-196 -8Z" horiz-adv-x="100" unicode="∕"/>
			<glyph d="M128 321Q146 321 159 308T173 276Q173 257 159 244T128 231Q109 231 96 244T84 276Q84 295 96 308T128 321Z" horiz-adv-x="255" unicode="∙"/>
			<glyph d="M443 786H497L287 -215H231L68 135L12 107L-9 151L94 199L250 -141Z" horiz-adv-x="496" unicode="√"/>
			<glyph d="M195 398Q241 398 286 365T379 281Q426 333 470 365T561 398Q621 398 659 357T697 252Q697 188 659 146T562 105Q516 105 470 137T379 218Q329 166 286 135T196 105Q136 105 98 146T60 251Q60 315 97 356T195 398ZM562 352Q529 352 493 327T408 250Q460 198 494 174T563 150Q603 150 627 179T651 250Q651 294 627 323T562 352ZM195 352Q155 352 131 322T107 250Q107 208 131 179T196 150Q229 150 265 175T349 250Q299 301 263 326T195 352Z" horiz-adv-x="747" unicode="∞"/>
			<glyph d="M344 779Q369 779 388 767T408 734Q408 719 399 710T376 702Q366 702 360 707T347 723Q341 732 337 736T326 740Q304 740 293 692T283 570V63Q283 -25 274 -82T241 -174T169 -208Q144 -208 125 -196T107 -163Q107 -150 116 -141T139 -132Q148 -132 153 -136T166 -153Q167 -155 171 -160T178 -167T187 -170Q208 -170 219 -123T231 -7V470V528Q231 604 238 656T269 744T344 779Z" horiz-adv-x="554" unicode="∫"/>
			<glyph d="M533 422H571Q565 365 533 328T442 291Q413 291 380 300T297 328Q247 345 221 352T174 360Q98 360 84 280H46Q52 336 82 372T172 409Q202 409 235 399T317 373Q367 356 394 348T445 341Q486 341 506 363T533 422ZM532 233H571Q564 177 533 140T442 103Q413 103 380 112T296 140Q253 156 224 164T174 173Q132 173 110 150T84 91H45Q52 147 82 184T171 222Q201 222 234 213T317 186Q361 170 390 161T445 153Q518 153 532 233Z" horiz-adv-x="666" unicode="≈"/>
			<glyph d="M430 547L474 526L411 400H571V352H385L317 217H571V169H292L211 9L168 31L239 169H87V217H264L331 352H87V400H356Z" horiz-adv-x="666" unicode="≠"/>
			<glyph d="M575 567V515L155 330L575 145V93L91 306V354ZM91 53H575V5H91Z" horiz-adv-x="666" unicode="≤"/>
			<glyph d="M91 567L575 354V306L91 93V145L511 330L91 515ZM91 53H575V5H91Z" horiz-adv-x="666" unicode="≥"/>
			<glyph d="M271 747H322L491 356L322 -35H271L105 356ZM296 696L158 356L296 16L436 356Z" horiz-adv-x="595" unicode="◊"/>
			<glyph d="M0 718H512V0H0ZM50 667V50H462V667ZM259 609Q313 609 348 573T383 478Q383 445 370 418T320 358Q294 335 284 321T273 292T271 234H225L223 251Q223 288 228 310T245 349T282 391Q313 422 322 438T332 474Q332 510 309 534T256 559Q223 559 201 536T174 464L124 472Q131 541 167 575T259 609ZM222 184H278V117H222Z" horiz-adv-x="512" unicode=""/>
			<glyph d="M261 769Q284 769 307 766T346 758L339 710Q301 720 265 720Q216 720 195 687T174 603V468H416V604Q416 686 455 727T562 769Q585 769 608 766T647 758L640 710Q602 720 566 720Q517 720 496 687T475 603V468H597L583 422H475V0H417V422H174V0H116V422H18L30 468H115V604Q115 686 154 727T261 769Z" horiz-adv-x="605" unicode="ﬀ"/>
			<glyph d="M258 769Q281 769 304 766T343 758L336 710Q299 720 263 720Q215 720 194 687T174 603V468H294L281 422H174V0H116V422H18L30 468H115V604Q115 686 153 727T258 769ZM414 698Q431 698 443 686T456 656Q456 638 443 625T414 613Q397 613 384 625T372 656Q372 673 384 685T414 698ZM385 468H444V0H385Z" horiz-adv-x="536" unicode="ﬁ"/>
			<glyph d="M291 769Q338 769 395 753L445 762V117Q445 83 454 66T489 38L462 -11Q428 0 407 29T386 104V704Q369 710 343 715T293 720Q232 720 203 682T174 583V468H294L281 422H174V0H116V422H18L30 468H115V584Q115 675 163 722T291 769Z" horiz-adv-x="539" unicode="ﬂ"/>
			<glyph d="M261 769Q284 769 307 766T346 758L339 710Q301 720 265 720Q216 720 195 687T174 603V468H416V604Q416 686 454 727T558 769Q581 769 605 766T643 758L636 710Q601 720 564 720Q516 720 495 687T475 603V468H595L582 422H475V0H416V422H174V0H116V422H18L30 468H115V604Q115 686 154 727T261 769ZM716 698Q732 698 744 686T757 656Q757 638 745 625T716 613Q699 613 686 625T674 656Q674 673 686 685T716 698ZM687 468H745V0H687Z" horiz-adv-x="831" unicode="ﬃ"/>
			<glyph d="M261 769Q284 769 307 766T346 758L339 710Q301 720 265 720Q216 720 195 687T174 603V468H390V584Q390 676 438 722T567 769Q613 769 670 753L720 762V117Q720 83 730 67T764 38L738 -11Q703 0 682 29T662 104V704Q616 720 569 720Q508 720 478 682T449 583V468H570L556 422H449V0H391V422H174V0H116V422H18L30 468H115V604Q115 686 154 727T261 769Z" horiz-adv-x="814" unicode="ﬄ"/>
		</font>
</defs>
</svg>
